<?xml version="1.0"?>
<svg xmlns:xlink="http://www.w3.org/1999/xlink" xmlns="http://www.w3.org/2000/svg" version="1.1" viewBox="0.0 0.0 250 159" fill="none" stroke="none" stroke-linecap="square" stroke-miterlimit="10">
  <clipPath id="g12f501fe3c1_0_0.0">
    <path d="m0 0l960.0 0l0 540.0l-960.0 0l0 -540.0z" clip-rule="nonzero"/>
  </clipPath>
  <g clip-path="url(#g12f501fe3c1_0_0.0)">
    <path fill="#000000" d="m61.31496 48.03582l0 0c0 -1.3220062 1.0716972 -2.3937035 2.3936996 -2.3937035l0 0c0.63485336 0 1.2436943 0.25219345 1.6926003 0.7010994c0.44890594 0.44890594 0.7011032 1.0577545 0.7011032 1.6926041l0 0c0 1.3220024 -1.071701 2.3936996 -2.3937035 2.3936996l0 0c-1.3220024 0 -2.3936996 -1.0716972 -2.3936996 -2.3936996z" fill-rule="evenodd"/>
    <path stroke="#ffffff" stroke-width="2.0" stroke-linejoin="round" stroke-linecap="butt" d="m61.31496 48.03582l0 0c0 -1.3220062 1.0716972 -2.3937035 2.3936996 -2.3937035l0 0c0.63485336 0 1.2436943 0.25219345 1.6926003 0.7010994c0.44890594 0.44890594 0.7011032 1.0577545 0.7011032 1.6926041l0 0c0 1.3220024 -1.071701 2.3936996 -2.3937035 2.3936996l0 0c-1.3220024 0 -2.3936996 -1.0716972 -2.3936996 -2.3936996z" fill-rule="evenodd"/>
    <path fill="#000000" fill-opacity="0.0" d="m15.057743 38.77289l25.102364 0l0 17.763779l-25.102364 0z" fill-rule="evenodd"/>
    <path fill="#000000" d="m25.026493 52.85289l0 -7.59375l1.15625 0l0 1.078125q0.84375 -1.25 2.421875 -1.25q0.6875 0 1.265625 0.25q0.578125 0.234375 0.859375 0.640625q0.28125 0.40625 0.40625 0.953125q0.0625 0.359375 0.0625 1.25l0 4.671875l-1.28125 0l0 -4.625q0 -0.78125 -0.15625 -1.171875q-0.15625 -0.390625 -0.546875 -0.625q-0.375 -0.234375 -0.890625 -0.234375q-0.8125 0 -1.421875 0.53125q-0.59375 0.515625 -0.59375 1.96875l0 4.15625l-1.28125 0z" fill-rule="nonzero"/>
    <path fill="#000000" fill-opacity="0.0" d="m15.057743 70.38073l25.102364 0l0 17.763779l-25.102364 0z" fill-rule="evenodd"/>
    <path fill="#000000" d="m24.510868 82.19511l1.265625 -0.203125q0.109375 0.765625 0.59375 1.171875q0.5 0.40625 1.375 0.40625q0.890625 0 1.3125 -0.359375q0.4375 -0.359375 0.4375 -0.84375q0 -0.4375 -0.375 -0.6875q-0.265625 -0.171875 -1.3125 -0.4375q-1.421875 -0.359375 -1.96875 -0.609375q-0.546875 -0.265625 -0.828125 -0.734375q-0.28125 -0.46875 -0.28125 -1.015625q0 -0.515625 0.21875 -0.9375q0.234375 -0.4375 0.640625 -0.734375q0.296875 -0.21875 0.8125 -0.359375q0.53125 -0.15625 1.125 -0.15625q0.890625 0 1.5625 0.265625q0.671875 0.25 1.0 0.6875q0.328125 0.4375 0.4375 1.171875l-1.25 0.171875q-0.09375 -0.578125 -0.5 -0.90625q-0.40625 -0.34375 -1.15625 -0.34375q-0.890625 0 -1.28125 0.296875q-0.375 0.296875 -0.375 0.6875q0 0.25 0.15625 0.453125q0.15625 0.203125 0.5 0.34375q0.1875 0.078125 1.140625 0.328125q1.359375 0.359375 1.890625 0.59375q0.546875 0.234375 0.859375 0.6875q0.3125 0.4375 0.3125 1.09375q0 0.640625 -0.375 1.21875q-0.375 0.5625 -1.09375 0.875q-0.703125 0.3125 -1.59375 0.3125q-1.484375 0 -2.265625 -0.609375q-0.765625 -0.625 -0.984375 -1.828125z" fill-rule="nonzero"/>
    <path fill="#000000" fill-opacity="0.0" d="m15.057743 128.5376l25.102364 0l0 17.763779l-25.102364 0z" fill-rule="evenodd"/>
    <path fill="#000000" d="m25.026493 142.6176l0 -10.484375l1.296875 0l0 5.96875l3.046875 -3.078125l1.671875 0l-2.90625 2.8125l3.1875 4.78125l-1.578125 0l-2.515625 -3.890625l-0.90625 0.875l0 3.015625l-1.296875 0z" fill-rule="nonzero"/>
    <path fill="#000000" d="m61.31496 80.03582l0 0c0 -1.3220062 1.0716972 -2.3936996 2.3936996 -2.3936996l0 0c0.63485336 0 1.2436943 0.25218964 1.6926003 0.7010956c0.44890594 0.44890594 0.7011032 1.0577545 0.7011032 1.6926041l0 0c0 1.3220062 -1.071701 2.3936996 -2.3937035 2.3936996l0 0c-1.3220024 0 -2.3936996 -1.0716934 -2.3936996 -2.3936996z" fill-rule="evenodd"/>
    <path stroke="#ffffff" stroke-width="2.0" stroke-linejoin="round" stroke-linecap="butt" d="m61.31496 80.03582l0 0c0 -1.3220062 1.0716972 -2.3936996 2.3936996 -2.3936996l0 0c0.63485336 0 1.2436943 0.25218964 1.6926003 0.7010956c0.44890594 0.44890594 0.7011032 1.0577545 0.7011032 1.6926041l0 0c0 1.3220062 -1.071701 2.3936996 -2.3937035 2.3936996l0 0c-1.3220024 0 -2.3936996 -1.0716934 -2.3936996 -2.3936996z" fill-rule="evenodd"/>
    <path fill="#000000" d="m61.31496 104.42798l0 0c0 -1.3220062 1.0716972 -2.3936996 2.3936996 -2.3936996l0 0c0.63485336 0 1.2436943 0.25218964 1.6926003 0.7010956c0.44890594 0.44890594 0.7011032 1.0577545 0.7011032 1.6926041l0 0c0 1.3219986 -1.071701 2.3936996 -2.3937035 2.3936996l0 0c-1.3220024 0 -2.3936996 -1.071701 -2.3936996 -2.3936996z" fill-rule="evenodd"/>
    <path stroke="#ffffff" stroke-width="2.0" stroke-linejoin="round" stroke-linecap="butt" d="m61.31496 104.42798l0 0c0 -1.3220062 1.0716972 -2.3936996 2.3936996 -2.3936996l0 0c0.63485336 0 1.2436943 0.25218964 1.6926003 0.7010956c0.44890594 0.44890594 0.7011032 1.0577545 0.7011032 1.6926041l0 0c0 1.3219986 -1.071701 2.3936996 -2.3937035 2.3936996l0 0c-1.3220024 0 -2.3936996 -1.071701 -2.3936996 -2.3936996z" fill-rule="evenodd"/>
    <path fill="#000000" d="m61.31496 137.0162l0 0c0 -1.321991 1.0716972 -2.393692 2.3936996 -2.393692l0 0c0.63485336 0 1.2436943 0.25219727 1.6926003 0.7010956c0.44890594 0.44891357 0.7011032 1.0577545 0.7011032 1.6925964l0 0c0 1.3220062 -1.071701 2.3937073 -2.3937035 2.3937073l0 0c-1.3220024 0 -2.3936996 -1.071701 -2.3936996 -2.3937073z" fill-rule="evenodd"/>
    <path stroke="#ffffff" stroke-width="2.0" stroke-linejoin="round" stroke-linecap="butt" d="m61.31496 137.0162l0 0c0 -1.321991 1.0716972 -2.393692 2.3936996 -2.393692l0 0c0.63485336 0 1.2436943 0.25219727 1.6926003 0.7010956c0.44890594 0.44891357 0.7011032 1.0577545 0.7011032 1.6925964l0 0c0 1.3220062 -1.071701 2.3937073 -2.3937035 2.3937073l0 0c-1.3220024 0 -2.3936996 -1.071701 -2.3936996 -2.3937073z" fill-rule="evenodd"/>
    <path fill="#000000" fill-opacity="0.0" d="m66.10236 48.03582l40.850395 0" fill-rule="evenodd"/>
    <path stroke="#000000" stroke-width="1.0" stroke-linejoin="round" stroke-linecap="butt" d="m66.10236 48.035816l38.37735 0" fill-rule="evenodd"/>
    <path fill="#000000" stroke="#000000" stroke-width="1.0" stroke-linecap="butt" d="m104.47971 48.035816l-0.57862854 0.57862854l1.5897675 -0.57862854l-1.5897675 -0.57862854z" fill-rule="evenodd"/>
    <path fill="#000000" fill-opacity="0.0" d="m65.40126 78.343216l42.267723 -28.629921" fill-rule="evenodd"/>
    <path stroke="#000000" stroke-width="1.0" stroke-linejoin="round" stroke-linecap="butt" d="m65.40126 78.343216l40.220184 -27.243023" fill-rule="evenodd"/>
    <path fill="#000000" stroke="#000000" stroke-width="1.0" stroke-linecap="butt" d="m105.62144 51.100197l-0.15457153 0.8035698l0.991745 -1.3706245l-1.6407471 0.4124794z" fill-rule="evenodd"/>
    <path fill="#000000" fill-opacity="0.0" d="m66.10236 137.0162l40.850395 0" fill-rule="evenodd"/>
    <path stroke="#000000" stroke-width="1.0" stroke-linejoin="round" stroke-linecap="butt" stroke-dasharray="4.0,3.0" d="m66.10236 137.0162l38.37735 0" fill-rule="evenodd"/>
    <path fill="#000000" stroke="#000000" stroke-width="1.0" stroke-linecap="butt" d="m104.47971 137.0162l-0.57862854 0.57862854l1.5897675 -0.57862854l-1.5897675 -0.57862854z" fill-rule="evenodd"/>
    <path fill="#000000" fill-opacity="0.0" d="m65.40126 106.120575l42.267723 29.196854" fill-rule="evenodd"/>
    <path stroke="#000000" stroke-width="1.0" stroke-linejoin="round" stroke-linecap="butt" stroke-dasharray="4.0,3.0" d="m65.40126 106.12058l40.232933 27.791298" fill-rule="evenodd"/>
    <path fill="#000000" stroke="#000000" stroke-width="1.0" stroke-linecap="butt" d="m105.63419 133.91188l-0.8049469 0.14723206l1.6369019 0.42744446l-0.9791794 -1.3796234z" fill-rule="evenodd"/>
    <path fill="#000000" d="m61.31496 16.035818l0 0c0 -1.3220034 1.0716972 -2.3936996 2.3936996 -2.3936996l0 0c0.63485336 0 1.2436943 0.2521925 1.6926003 0.70109844c0.44890594 0.44890594 0.7011032 1.0577526 0.7011032 1.6926012l0 0c0 1.3220043 -1.071701 2.3937016 -2.3937035 2.3937016l0 0c-1.3220024 0 -2.3936996 -1.0716972 -2.3936996 -2.3937016z" fill-rule="evenodd"/>
    <path stroke="#ffffff" stroke-width="2.0" stroke-linejoin="round" stroke-linecap="butt" d="m61.31496 16.035818l0 0c0 -1.3220034 1.0716972 -2.3936996 2.3936996 -2.3936996l0 0c0.63485336 0 1.2436943 0.2521925 1.6926003 0.70109844c0.44890594 0.44890594 0.7011032 1.0577526 0.7011032 1.6926012l0 0c0 1.3220043 -1.071701 2.3937016 -2.3937035 2.3937016l0 0c-1.3220024 0 -2.3936996 -1.0716972 -2.3936996 -2.3937016z" fill-rule="evenodd"/>
    <path fill="#000000" fill-opacity="0.0" d="m15.057743 7.5572033l25.102364 0l0 17.763779l-25.102364 0z" fill-rule="evenodd"/>
    <path fill="#000000" d="m24.542118 17.840328q0 -2.109375 1.171875 -3.125q0.984375 -0.84375 2.390625 -0.84375q1.578125 0 2.5625 1.03125q1.0 1.015625 1.0 2.828125q0 1.46875 -0.4375 2.3125q-0.4375 0.828125 -1.28125 1.296875q-0.84375 0.46875 -1.84375 0.46875q-1.59375 0 -2.578125 -1.015625q-0.984375 -1.03125 -0.984375 -2.953125zm1.328125 0q0 1.453125 0.625 2.1875q0.640625 0.71875 1.609375 0.71875q0.96875 0 1.59375 -0.71875q0.640625 -0.734375 0.640625 -2.234375q0 -1.40625 -0.640625 -2.125q-0.640625 -0.734375 -1.59375 -0.734375q-0.96875 0 -1.609375 0.71875q-0.625 0.71875 -0.625 2.1875z" fill-rule="nonzero"/>
    <path fill="#000000" fill-opacity="0.0" d="m63.70866 45.642117l0 -27.212597" fill-rule="evenodd"/>
    <path stroke="#000000" stroke-width="1.0" stroke-linejoin="round" stroke-linecap="butt" d="m63.70866 45.642117l0 -24.739555" fill-rule="evenodd"/>
    <path fill="#000000" stroke="#000000" stroke-width="1.0" stroke-linecap="butt" d="m63.70866 20.902561l0.57863235 0.57862854l-0.57863235 -1.5897675l-0.57862854 1.5897675z" fill-rule="evenodd"/>
    <path fill="#000000" fill-opacity="0.0" d="m15.057743 96.5376l25.102364 0l0 17.763779l-25.102364 0z" fill-rule="evenodd"/>
    <path fill="#000000" d="m22.026493 110.61759l0 -7.59375l1.15625 0l0 1.0625q0.34375 -0.5625 0.9375 -0.890625q0.609375 -0.34375 1.359375 -0.34375q0.84375 0 1.375 0.34375q0.546875 0.34375 0.765625 0.984375q0.90625 -1.328125 2.359375 -1.328125q1.125 0 1.734375 0.625q0.609375 0.625 0.609375 1.921875l0 5.21875l-1.28125 0l0 -4.78125q0 -0.78125 -0.125 -1.109375q-0.125 -0.34375 -0.453125 -0.546875q-0.328125 -0.21875 -0.78125 -0.21875q-0.796875 0 -1.328125 0.53125q-0.53125 0.53125 -0.53125 1.703125l0 4.421875l-1.28125 0l0 -4.9375q0 -0.859375 -0.3125 -1.28125q-0.3125 -0.4375 -1.03125 -0.4375q-0.546875 0 -1.015625 0.296875q-0.453125 0.28125 -0.671875 0.828125q-0.203125 0.546875 -0.203125 1.59375l0 3.9375l-1.28125 0z" fill-rule="nonzero"/>
    <path fill="#000000" fill-opacity="0.0" d="m61.31496 48.03582c-2.422573 0 -4.8530197 14.094486 -4.845146 28.188972c0.00787735 14.09449 2.454071 28.18898 4.9081383 28.18898" fill-rule="evenodd"/>
    <path stroke="#000000" stroke-width="1.0" stroke-linejoin="round" stroke-linecap="butt" d="m61.31496 48.035816c-2.422573 0 -4.8530197 14.09449 -4.8451424 28.188976c0.0039367676 7.047249 0.6174507 14.094498 1.5367432 19.379929c0.22982407 1.3213577 0.47875595 2.5326004 0.742054 3.6062088c0.13164902 0.53679657 0.26688766 1.0391922 0.40512848 1.5037308c0.0691185 0.23226929 0.13898468 0.45507812 0.20952606 0.667984l0.07106781 0.20848846" fill-rule="evenodd"/>
    <path fill="#000000" stroke="#000000" stroke-width="1.0" stroke-linecap="butt" d="m59.434338 101.59114l-1.5640259 -0.28845215l2.678547 1.9070282l-0.8260765 -3.182602z" fill-rule="evenodd"/>
    <path fill="#000000" fill-opacity="0.0" d="m66.10236 137.0162c3.6154861 0 7.2230988 -14.244087 7.2309723 -28.488182c0.007873535 -14.244095 -3.583992 -28.48819 -7.167984 -28.48819" fill-rule="evenodd"/>
    <path stroke="#000000" stroke-width="1.0" stroke-linejoin="round" stroke-linecap="butt" d="m66.10236 137.0162c3.6154861 0 7.2230988 -14.244087 7.2309723 -28.488182c0.0039367676 -7.1220474 -0.8920593 -14.244095 -2.2370453 -19.585632c-0.67248535 -2.6707687 -1.457222 -4.896408 -2.2978363 -6.4543533c-0.10507965 -0.19474792 -0.21102142 -0.37905884 -0.3177414 -0.55249786c-0.053352356 -0.08672333 -0.106903076 -0.17073059 -0.16062927 -0.25196075l-0.14203644 -0.2067337" fill-rule="evenodd"/>
    <path fill="#000000" stroke="#000000" stroke-width="1.0" stroke-linecap="butt" d="m68.17805 81.476845l0.80714417 -0.13469696l-1.6300659 -0.45285034l0.9576187 1.3946915z" fill-rule="evenodd"/>
    <path fill="#000000" d="m106.96202 48.03582l0 0c0 -1.3220062 1.0716934 -2.3937035 2.3936996 -2.3937035l0 0c0.63484955 0 1.2436981 0.25219345 1.6926041 0.7010994c0.44890594 0.44890594 0.7010956 1.0577545 0.7010956 1.6926041l0 0c0 1.3220024 -1.0716934 2.3936996 -2.3936996 2.3936996l0 0c-1.3220062 0 -2.3936996 -1.0716972 -2.3936996 -2.3936996z" fill-rule="evenodd"/>
    <path stroke="#ffffff" stroke-width="2.0" stroke-linejoin="round" stroke-linecap="butt" d="m106.96202 48.03582l0 0c0 -1.3220062 1.0716934 -2.3937035 2.3936996 -2.3937035l0 0c0.63484955 0 1.2436981 0.25219345 1.6926041 0.7010994c0.44890594 0.44890594 0.7010956 1.0577545 0.7010956 1.6926041l0 0c0 1.3220024 -1.0716934 2.3936996 -2.3936996 2.3936996l0 0c-1.3220062 0 -2.3936996 -1.0716972 -2.3936996 -2.3936996z" fill-rule="evenodd"/>
    <path fill="#000000" d="m106.96202 80.03582l0 0c0 -1.3220062 1.0716934 -2.3936996 2.3936996 -2.3936996l0 0c0.63484955 0 1.2436981 0.25218964 1.6926041 0.7010956c0.44890594 0.44890594 0.7010956 1.0577545 0.7010956 1.6926041l0 0c0 1.3220062 -1.0716934 2.3936996 -2.3936996 2.3936996l0 0c-1.3220062 0 -2.3936996 -1.0716934 -2.3936996 -2.3936996z" fill-rule="evenodd"/>
    <path stroke="#ffffff" stroke-width="2.0" stroke-linejoin="round" stroke-linecap="butt" d="m106.96202 80.03582l0 0c0 -1.3220062 1.0716934 -2.3936996 2.3936996 -2.3936996l0 0c0.63484955 0 1.2436981 0.25218964 1.6926041 0.7010956c0.44890594 0.44890594 0.7010956 1.0577545 0.7010956 1.6926041l0 0c0 1.3220062 -1.0716934 2.3936996 -2.3936996 2.3936996l0 0c-1.3220062 0 -2.3936996 -1.0716934 -2.3936996 -2.3936996z" fill-rule="evenodd"/>
    <path fill="#000000" d="m106.96202 104.42798l0 0c0 -1.3220062 1.0716934 -2.3936996 2.3936996 -2.3936996l0 0c0.63484955 0 1.2436981 0.25218964 1.6926041 0.7010956c0.44890594 0.44890594 0.7010956 1.0577545 0.7010956 1.6926041l0 0c0 1.3219986 -1.0716934 2.3936996 -2.3936996 2.3936996l0 0c-1.3220062 0 -2.3936996 -1.071701 -2.3936996 -2.3936996z" fill-rule="evenodd"/>
    <path stroke="#ffffff" stroke-width="2.0" stroke-linejoin="round" stroke-linecap="butt" d="m106.96202 104.42798l0 0c0 -1.3220062 1.0716934 -2.3936996 2.3936996 -2.3936996l0 0c0.63484955 0 1.2436981 0.25218964 1.6926041 0.7010956c0.44890594 0.44890594 0.7010956 1.0577545 0.7010956 1.6926041l0 0c0 1.3219986 -1.0716934 2.3936996 -2.3936996 2.3936996l0 0c-1.3220062 0 -2.3936996 -1.071701 -2.3936996 -2.3936996z" fill-rule="evenodd"/>
    <path fill="#000000" d="m106.96202 137.0162l0 0c0 -1.321991 1.0716934 -2.393692 2.3936996 -2.393692l0 0c0.63484955 0 1.2436981 0.25219727 1.6926041 0.7010956c0.44890594 0.44891357 0.7010956 1.0577545 0.7010956 1.6925964l0 0c0 1.3220062 -1.0716934 2.3937073 -2.3936996 2.3937073l0 0c-1.3220062 0 -2.3936996 -1.071701 -2.3936996 -2.3937073z" fill-rule="evenodd"/>
    <path stroke="#ffffff" stroke-width="2.0" stroke-linejoin="round" stroke-linecap="butt" d="m106.96202 137.0162l0 0c0 -1.321991 1.0716934 -2.393692 2.3936996 -2.393692l0 0c0.63484955 0 1.2436981 0.25219727 1.6926041 0.7010956c0.44890594 0.44891357 0.7010956 1.0577545 0.7010956 1.6925964l0 0c0 1.3220062 -1.0716934 2.3937073 -2.3936996 2.3937073l0 0c-1.3220062 0 -2.3936996 -1.071701 -2.3936996 -2.3937073z" fill-rule="evenodd"/>
    <path fill="#000000" fill-opacity="0.0" d="m111.74942 48.03582l41.259842 0" fill-rule="evenodd"/>
    <path stroke="#000000" stroke-width="1.0" stroke-linejoin="round" stroke-linecap="butt" d="m111.74941 48.035816l38.786797 0" fill-rule="evenodd"/>
    <path fill="#000000" stroke="#000000" stroke-width="1.0" stroke-linecap="butt" d="m150.53621 48.035816l-0.57862854 0.57862854l1.5897827 -0.57862854l-1.5897827 -0.57862854z" fill-rule="evenodd"/>
    <path fill="#000000" fill-opacity="0.0" d="m111.048325 78.343216l42.64566 -28.629921" fill-rule="evenodd"/>
    <path stroke="#000000" stroke-width="1.0" stroke-linejoin="round" stroke-linecap="butt" d="m111.04832 78.343216l40.592415 -27.25148" fill-rule="evenodd"/>
    <path fill="#000000" stroke="#000000" stroke-width="1.0" stroke-linecap="butt" d="m151.64073 51.091736l-0.15788269 0.8029251l0.99739075 -1.3665199l-1.6424255 0.4057045z" fill-rule="evenodd"/>
    <path fill="#000000" fill-opacity="0.0" d="m111.74942 137.0162l41.259842 0" fill-rule="evenodd"/>
    <path stroke="#000000" stroke-width="1.0" stroke-linejoin="round" stroke-linecap="butt" stroke-dasharray="4.0,3.0" d="m111.74941 137.0162l38.786797 0" fill-rule="evenodd"/>
    <path fill="#000000" stroke="#000000" stroke-width="1.0" stroke-linecap="butt" d="m150.53621 137.0162l-0.57862854 0.57862854l1.5897827 -0.57862854l-1.5897827 -0.57862854z" fill-rule="evenodd"/>
    <path fill="#000000" fill-opacity="0.0" d="m111.048325 106.120575l42.64566 29.196854" fill-rule="evenodd"/>
    <path stroke="#000000" stroke-width="1.0" stroke-linejoin="round" stroke-linecap="butt" stroke-dasharray="4.0,3.0" d="m111.04832 106.12058l40.605064 27.799767" fill-rule="evenodd"/>
    <path fill="#000000" stroke="#000000" stroke-width="1.0" stroke-linecap="butt" d="m151.65338 133.92035l-0.80433655 0.15057373l1.6386719 0.42063904l-0.98490906 -1.3755493z" fill-rule="evenodd"/>
    <path fill="#000000" d="m106.96202 16.035818l0 0c0 -1.3220034 1.0716934 -2.3936996 2.3936996 -2.3936996l0 0c0.63484955 0 1.2436981 0.2521925 1.6926041 0.70109844c0.44890594 0.44890594 0.7010956 1.0577526 0.7010956 1.6926012l0 0c0 1.3220043 -1.0716934 2.3937016 -2.3936996 2.3937016l0 0c-1.3220062 0 -2.3936996 -1.0716972 -2.3936996 -2.3937016z" fill-rule="evenodd"/>
    <path stroke="#ffffff" stroke-width="2.0" stroke-linejoin="round" stroke-linecap="butt" d="m106.96202 16.035818l0 0c0 -1.3220034 1.0716934 -2.3936996 2.3936996 -2.3936996l0 0c0.63484955 0 1.2436981 0.2521925 1.6926041 0.70109844c0.44890594 0.44890594 0.7010956 1.0577526 0.7010956 1.6926012l0 0c0 1.3220043 -1.0716934 2.3937016 -2.3936996 2.3937016l0 0c-1.3220062 0 -2.3936996 -1.0716972 -2.3936996 -2.3937016z" fill-rule="evenodd"/>
    <path fill="#000000" fill-opacity="0.0" d="m109.35572 45.642117l0 -27.212597" fill-rule="evenodd"/>
    <path stroke="#000000" stroke-width="1.0" stroke-linejoin="round" stroke-linecap="butt" d="m109.35571 45.642117l0 -24.739555" fill-rule="evenodd"/>
    <path fill="#000000" stroke="#000000" stroke-width="1.0" stroke-linecap="butt" d="m109.35571 20.902561l0.57862854 0.57862854l-0.57862854 -1.5897675l-0.57862854 1.5897675z" fill-rule="evenodd"/>
    <path fill="#000000" fill-opacity="0.0" d="m106.96202 48.03582c-4.4613266 0 -8.930527 14.094486 -8.922653 28.188972c0.007873535 14.09449 4.4928207 28.18898 8.9856415 28.18898" fill-rule="evenodd"/>
    <path stroke="#000000" stroke-width="1.0" stroke-linejoin="round" stroke-linecap="butt" d="m106.96201 48.035816c-4.461319 0 -8.930519 14.09449 -8.922646 28.188976c0.0039367676 7.047249 1.1271439 14.094498 2.8109665 19.379929c0.8419113 2.6427155 1.8239822 4.8449783 2.8763733 6.386566c0.13153839 0.19269562 0.26419067 0.37506866 0.39779663 0.5466919l0.017936707 0.022224426" fill-rule="evenodd"/>
    <path fill="#000000" stroke="#000000" stroke-width="1.0" stroke-linecap="butt" d="m104.14244 102.5602l-1.5541458 0.33766174l3.2070847 0.72522736l-1.9906006 -2.6170273z" fill-rule="evenodd"/>
    <path fill="#000000" fill-opacity="0.0" d="m111.74942 137.0162c3.9297485 0 7.851631 -14.244087 7.8595047 -28.488182c0.007873535 -14.244095 -3.8982544 -28.48819 -7.796509 -28.48819" fill-rule="evenodd"/>
    <path stroke="#000000" stroke-width="1.0" stroke-linejoin="round" stroke-linecap="butt" d="m111.74941 137.0162c3.9297638 0 7.851639 -14.244087 7.8595123 -28.488182c0.0039367676 -7.1220474 -0.97062683 -14.244095 -2.433464 -19.585632c-0.73140717 -2.6707687 -1.5848923 -4.896408 -2.4991531 -6.4543533c-0.22857666 -0.38948822 -0.4609375 -0.7372513 -0.6961441 -1.0397949l-0.07434082 -0.09175873" fill-rule="evenodd"/>
    <path fill="#000000" stroke="#000000" stroke-width="1.0" stroke-linecap="butt" d="m113.905815 81.35648l0.7978668 -0.1817398l-1.6537857 -0.35659027l1.0376587 1.3361969z" fill-rule="evenodd"/>
    <path fill="#000000" d="m153.00124 48.03582l0 0c0 -1.3220062 1.071701 -2.3937035 2.393692 -2.3937035l0 0c0.6348572 0 1.2436981 0.25219345 1.6926117 0.7010994c0.44889832 0.44890594 0.7010956 1.0577545 0.7010956 1.6926041l0 0c0 1.3220024 -1.071701 2.3936996 -2.3937073 2.3936996l0 0c-1.321991 0 -2.393692 -1.0716972 -2.393692 -2.3936996z" fill-rule="evenodd"/>
    <path stroke="#ffffff" stroke-width="2.0" stroke-linejoin="round" stroke-linecap="butt" d="m153.00124 48.03582l0 0c0 -1.3220062 1.071701 -2.3937035 2.393692 -2.3937035l0 0c0.6348572 0 1.2436981 0.25219345 1.6926117 0.7010994c0.44889832 0.44890594 0.7010956 1.0577545 0.7010956 1.6926041l0 0c0 1.3220024 -1.071701 2.3936996 -2.3937073 2.3936996l0 0c-1.321991 0 -2.393692 -1.0716972 -2.393692 -2.3936996z" fill-rule="evenodd"/>
    <path fill="#000000" d="m153.00124 80.03582l0 0c0 -1.3220062 1.071701 -2.3936996 2.393692 -2.3936996l0 0c0.6348572 0 1.2436981 0.25218964 1.6926117 0.7010956c0.44889832 0.44890594 0.7010956 1.0577545 0.7010956 1.6926041l0 0c0 1.3220062 -1.071701 2.3936996 -2.3937073 2.3936996l0 0c-1.321991 0 -2.393692 -1.0716934 -2.393692 -2.3936996z" fill-rule="evenodd"/>
    <path stroke="#ffffff" stroke-width="2.0" stroke-linejoin="round" stroke-linecap="butt" d="m153.00124 80.03582l0 0c0 -1.3220062 1.071701 -2.3936996 2.393692 -2.3936996l0 0c0.6348572 0 1.2436981 0.25218964 1.6926117 0.7010956c0.44889832 0.44890594 0.7010956 1.0577545 0.7010956 1.6926041l0 0c0 1.3220062 -1.071701 2.3936996 -2.3937073 2.3936996l0 0c-1.321991 0 -2.393692 -1.0716934 -2.393692 -2.3936996z" fill-rule="evenodd"/>
    <path fill="#000000" d="m153.00124 104.42798l0 0c0 -1.3220062 1.071701 -2.3936996 2.393692 -2.3936996l0 0c0.6348572 0 1.2436981 0.25218964 1.6926117 0.7010956c0.44889832 0.44890594 0.7010956 1.0577545 0.7010956 1.6926041l0 0c0 1.3219986 -1.071701 2.3936996 -2.3937073 2.3936996l0 0c-1.321991 0 -2.393692 -1.071701 -2.393692 -2.3936996z" fill-rule="evenodd"/>
    <path stroke="#ffffff" stroke-width="2.0" stroke-linejoin="round" stroke-linecap="butt" d="m153.00124 104.42798l0 0c0 -1.3220062 1.071701 -2.3936996 2.393692 -2.3936996l0 0c0.6348572 0 1.2436981 0.25218964 1.6926117 0.7010956c0.44889832 0.44890594 0.7010956 1.0577545 0.7010956 1.6926041l0 0c0 1.3219986 -1.071701 2.3936996 -2.3937073 2.3936996l0 0c-1.321991 0 -2.393692 -1.071701 -2.393692 -2.3936996z" fill-rule="evenodd"/>
    <path fill="#000000" d="m153.00124 137.0162l0 0c0 -1.321991 1.071701 -2.393692 2.393692 -2.393692l0 0c0.6348572 0 1.2436981 0.25219727 1.6926117 0.7010956c0.44889832 0.44891357 0.7010956 1.0577545 0.7010956 1.6925964l0 0c0 1.3220062 -1.071701 2.3937073 -2.3937073 2.3937073l0 0c-1.321991 0 -2.393692 -1.071701 -2.393692 -2.3937073z" fill-rule="evenodd"/>
    <path stroke="#ffffff" stroke-width="2.0" stroke-linejoin="round" stroke-linecap="butt" d="m153.00124 137.0162l0 0c0 -1.321991 1.071701 -2.393692 2.393692 -2.393692l0 0c0.6348572 0 1.2436981 0.25219727 1.6926117 0.7010956c0.44889832 0.44891357 0.7010956 1.0577545 0.7010956 1.6925964l0 0c0 1.3220062 -1.071701 2.3937073 -2.3937073 2.3937073l0 0c-1.321991 0 -2.393692 -1.071701 -2.393692 -2.3937073z" fill-rule="evenodd"/>
    <path fill="#000000" fill-opacity="0.0" d="m157.78864 48.03582l41.637802 0" fill-rule="evenodd"/>
    <path stroke="#000000" stroke-width="1.0" stroke-linejoin="round" stroke-linecap="butt" d="m157.78864 48.035816l39.16475 0" fill-rule="evenodd"/>
    <path fill="#000000" stroke="#000000" stroke-width="1.0" stroke-linecap="butt" d="m196.95338 48.035816l-0.57862854 0.57862854l1.5897675 -0.57862854l-1.5897675 -0.57862854z" fill-rule="evenodd"/>
    <path fill="#000000" fill-opacity="0.0" d="m157.08754 78.343216l43.055115 -28.629921" fill-rule="evenodd"/>
    <path stroke="#000000" stroke-width="1.0" stroke-linejoin="round" stroke-linecap="butt" d="m157.08754 78.343216l40.99579 -27.26056" fill-rule="evenodd"/>
    <path fill="#000000" stroke="#000000" stroke-width="1.0" stroke-linecap="butt" d="m198.08334 51.082657l-0.16143799 0.8022232l1.003418 -1.3621063l-1.6442108 0.39845276z" fill-rule="evenodd"/>
    <path fill="#000000" fill-opacity="0.0" d="m157.78864 137.0162l41.637802 0" fill-rule="evenodd"/>
    <path stroke="#000000" stroke-width="1.0" stroke-linejoin="round" stroke-linecap="butt" stroke-dasharray="4.0,3.0" d="m157.78864 137.0162l39.16475 0" fill-rule="evenodd"/>
    <path fill="#000000" stroke="#000000" stroke-width="1.0" stroke-linecap="butt" d="m196.95338 137.0162l-0.57862854 0.57862854l1.5897675 -0.57862854l-1.5897675 -0.57862854z" fill-rule="evenodd"/>
    <path fill="#000000" fill-opacity="0.0" d="m157.08754 106.120575l43.055115 29.196854" fill-rule="evenodd"/>
    <path stroke="#000000" stroke-width="1.0" stroke-linejoin="round" stroke-linecap="butt" stroke-dasharray="4.0,3.0" d="m157.08754 106.12058l41.0083 27.80886" fill-rule="evenodd"/>
    <path fill="#000000" stroke="#000000" stroke-width="1.0" stroke-linecap="butt" d="m198.09586 133.92944l-0.80366516 0.15414429l1.6405334 0.41334534l-0.9910126 -1.3711548z" fill-rule="evenodd"/>
    <path fill="#000000" d="m153.00124 16.035818l0 0c0 -1.3220034 1.071701 -2.3936996 2.393692 -2.3936996l0 0c0.6348572 0 1.2436981 0.2521925 1.6926117 0.70109844c0.44889832 0.44890594 0.7010956 1.0577526 0.7010956 1.6926012l0 0c0 1.3220043 -1.071701 2.3937016 -2.3937073 2.3937016l0 0c-1.321991 0 -2.393692 -1.0716972 -2.393692 -2.3937016z" fill-rule="evenodd"/>
    <path stroke="#ffffff" stroke-width="2.0" stroke-linejoin="round" stroke-linecap="butt" d="m153.00124 16.035818l0 0c0 -1.3220034 1.071701 -2.3936996 2.393692 -2.3936996l0 0c0.6348572 0 1.2436981 0.2521925 1.6926117 0.70109844c0.44889832 0.44890594 0.7010956 1.0577526 0.7010956 1.6926012l0 0c0 1.3220043 -1.071701 2.3937016 -2.3937073 2.3937016l0 0c-1.321991 0 -2.393692 -1.0716972 -2.393692 -2.3937016z" fill-rule="evenodd"/>
    <path fill="#000000" fill-opacity="0.0" d="m155.39493 45.642117l0 -27.212597" fill-rule="evenodd"/>
    <path stroke="#000000" stroke-width="1.0" stroke-linejoin="round" stroke-linecap="butt" d="m155.39493 45.642117l0 -24.739555" fill-rule="evenodd"/>
    <path fill="#000000" stroke="#000000" stroke-width="1.0" stroke-linecap="butt" d="m155.39493 20.902561l0.57862854 0.57862854l-0.57862854 -1.5897675l-0.57862854 1.5897675z" fill-rule="evenodd"/>
    <path fill="#000000" fill-opacity="0.0" d="m153.00124 48.03582c-4.1475983 0 -8.30307 14.094486 -8.295197 28.188972c0.007873535 14.09449 4.1790924 28.18898 8.358185 28.18898" fill-rule="evenodd"/>
    <path stroke="#000000" stroke-width="1.0" stroke-linejoin="round" stroke-linecap="butt" d="m153.00124 48.035816c-4.1475983 0 -8.30307 14.09449 -8.295197 28.188976c0.0039367676 7.047249 1.048706 14.094498 2.6148834 19.379929c0.7830963 2.6427155 1.6965332 4.8449783 2.6753845 6.386566c0.061172485 0.096343994 0.12261963 0.19010925 0.18429565 0.28125l0.099731445 0.14253235" fill-rule="evenodd"/>
    <path fill="#000000" stroke="#000000" stroke-width="1.0" stroke-linecap="butt" d="m150.28032 102.41507l-1.5693817 0.2576599l3.1657562 0.8884506l-1.8540344 -2.7154999z" fill-rule="evenodd"/>
    <path fill="#000000" fill-opacity="0.0" d="m157.78864 137.0162c4.046631 0 8.085388 -14.244087 8.093262 -28.488182c0.007873535 -14.244095 -4.0151367 -28.48819 -8.030273 -28.48819" fill-rule="evenodd"/>
    <path stroke="#000000" stroke-width="1.0" stroke-linejoin="round" stroke-linecap="butt" d="m157.78864 137.0162c4.046631 0 8.085373 -14.244087 8.093262 -28.488182c0.0039367676 -7.1220474 -0.9998474 -14.244095 -2.5065002 -19.585632c-0.7533417 -2.6707687 -1.6323853 -4.896408 -2.574051 -6.4543533c-0.23542786 -0.38948822 -0.4747467 -0.7372513 -0.71699524 -1.0397949l-0.112701416 -0.13505554" fill-rule="evenodd"/>
    <path fill="#000000" stroke="#000000" stroke-width="1.0" stroke-linecap="butt" d="m159.97165 81.31319l0.7939606 -0.19809723l-1.6607666 -0.32253265l1.0648956 1.3145981z" fill-rule="evenodd"/>
    <path fill="#000000" d="m199.4326 48.03582l0 0c0 -1.3220062 1.071701 -2.3937035 2.3937073 -2.3937035l0 0c0.6348419 0 1.2436981 0.25219345 1.6925964 0.7010994c0.44891357 0.44890594 0.7010956 1.0577545 0.7010956 1.6926041l0 0c0 1.3220024 -1.0716858 2.3936996 -2.393692 2.3936996l0 0c-1.3220062 0 -2.3937073 -1.0716972 -2.3937073 -2.3936996z" fill-rule="evenodd"/>
    <path stroke="#ffffff" stroke-width="2.0" stroke-linejoin="round" stroke-linecap="butt" d="m199.4326 48.03582l0 0c0 -1.3220062 1.071701 -2.3937035 2.3937073 -2.3937035l0 0c0.6348419 0 1.2436981 0.25219345 1.6925964 0.7010994c0.44891357 0.44890594 0.7010956 1.0577545 0.7010956 1.6926041l0 0c0 1.3220024 -1.0716858 2.3936996 -2.393692 2.3936996l0 0c-1.3220062 0 -2.3937073 -1.0716972 -2.3937073 -2.3936996z" fill-rule="evenodd"/>
    <path fill="#000000" d="m199.4326 80.03582l0 0c0 -1.3220062 1.071701 -2.3936996 2.3937073 -2.3936996l0 0c0.6348419 0 1.2436981 0.25218964 1.6925964 0.7010956c0.44891357 0.44890594 0.7010956 1.0577545 0.7010956 1.6926041l0 0c0 1.3220062 -1.0716858 2.3936996 -2.393692 2.3936996l0 0c-1.3220062 0 -2.3937073 -1.0716934 -2.3937073 -2.3936996z" fill-rule="evenodd"/>
    <path stroke="#ffffff" stroke-width="2.0" stroke-linejoin="round" stroke-linecap="butt" d="m199.4326 80.03582l0 0c0 -1.3220062 1.071701 -2.3936996 2.3937073 -2.3936996l0 0c0.6348419 0 1.2436981 0.25218964 1.6925964 0.7010956c0.44891357 0.44890594 0.7010956 1.0577545 0.7010956 1.6926041l0 0c0 1.3220062 -1.0716858 2.3936996 -2.393692 2.3936996l0 0c-1.3220062 0 -2.3937073 -1.0716934 -2.3937073 -2.3936996z" fill-rule="evenodd"/>
    <path fill="#000000" d="m199.4326 104.42798l0 0c0 -1.3220062 1.071701 -2.3936996 2.3937073 -2.3936996l0 0c0.6348419 0 1.2436981 0.25218964 1.6925964 0.7010956c0.44891357 0.44890594 0.7010956 1.0577545 0.7010956 1.6926041l0 0c0 1.3219986 -1.0716858 2.3936996 -2.393692 2.3936996l0 0c-1.3220062 0 -2.3937073 -1.071701 -2.3937073 -2.3936996z" fill-rule="evenodd"/>
    <path stroke="#ffffff" stroke-width="2.0" stroke-linejoin="round" stroke-linecap="butt" d="m199.4326 104.42798l0 0c0 -1.3220062 1.071701 -2.3936996 2.3937073 -2.3936996l0 0c0.6348419 0 1.2436981 0.25218964 1.6925964 0.7010956c0.44891357 0.44890594 0.7010956 1.0577545 0.7010956 1.6926041l0 0c0 1.3219986 -1.0716858 2.3936996 -2.393692 2.3936996l0 0c-1.3220062 0 -2.3937073 -1.071701 -2.3937073 -2.3936996z" fill-rule="evenodd"/>
    <path fill="#000000" d="m199.4326 137.0162l0 0c0 -1.321991 1.071701 -2.393692 2.3937073 -2.393692l0 0c0.6348419 0 1.2436981 0.25219727 1.6925964 0.7010956c0.44891357 0.44891357 0.7010956 1.0577545 0.7010956 1.6925964l0 0c0 1.3220062 -1.0716858 2.3937073 -2.393692 2.3937073l0 0c-1.3220062 0 -2.3937073 -1.071701 -2.3937073 -2.3937073z" fill-rule="evenodd"/>
    <path stroke="#ffffff" stroke-width="2.0" stroke-linejoin="round" stroke-linecap="butt" d="m199.4326 137.0162l0 0c0 -1.321991 1.071701 -2.393692 2.3937073 -2.393692l0 0c0.6348419 0 1.2436981 0.25219727 1.6925964 0.7010956c0.44891357 0.44891357 0.7010956 1.0577545 0.7010956 1.6925964l0 0c0 1.3220062 -1.0716858 2.3937073 -2.393692 2.3937073l0 0c-1.3220062 0 -2.3937073 -1.071701 -2.3937073 -2.3937073z" fill-rule="evenodd"/>
    <path fill="#000000" d="m199.4326 16.035818l0 0c0 -1.3220034 1.071701 -2.3936996 2.3937073 -2.3936996l0 0c0.6348419 0 1.2436981 0.2521925 1.6925964 0.70109844c0.44891357 0.44890594 0.7010956 1.0577526 0.7010956 1.6926012l0 0c0 1.3220043 -1.0716858 2.3937016 -2.393692 2.3937016l0 0c-1.3220062 0 -2.3937073 -1.0716972 -2.3937073 -2.3937016z" fill-rule="evenodd"/>
    <path stroke="#ffffff" stroke-width="2.0" stroke-linejoin="round" stroke-linecap="butt" d="m199.4326 16.035818l0 0c0 -1.3220034 1.071701 -2.3936996 2.3937073 -2.3936996l0 0c0.6348419 0 1.2436981 0.2521925 1.6925964 0.70109844c0.44891357 0.44890594 0.7010956 1.0577526 0.7010956 1.6926012l0 0c0 1.3220043 -1.0716858 2.3937016 -2.393692 2.3937016l0 0c-1.3220062 0 -2.3937073 -1.0716972 -2.3937073 -2.3937016z" fill-rule="evenodd"/>
    <path fill="#000000" fill-opacity="0.0" d="m201.82631 45.642117l0 -27.212597" fill-rule="evenodd"/>
    <path stroke="#000000" stroke-width="1.0" stroke-linejoin="round" stroke-linecap="butt" d="m201.8263 45.642117l0 -24.739555" fill-rule="evenodd"/>
    <path fill="#000000" stroke="#000000" stroke-width="1.0" stroke-linecap="butt" d="m201.8263 20.902561l0.57862854 0.57862854l-0.57862854 -1.5897675l-0.57862854 1.5897675z" fill-rule="evenodd"/>
    <path fill="#000000" fill-opacity="0.0" d="m199.4326 48.03582c-4.225479 0 -8.458847 14.094486 -8.4509735 28.188972c0.007873535 14.09449 4.2569885 28.18898 8.513977 28.18898" fill-rule="evenodd"/>
    <path stroke="#000000" stroke-width="1.0" stroke-linejoin="round" stroke-linecap="butt" d="m199.4326 48.035816c-4.225479 0 -8.458847 14.09449 -8.4509735 28.188976c0.0039367676 7.047249 1.0681763 14.094498 2.6635742 19.379929c0.7976837 2.6427155 1.7281494 4.8449783 2.7252808 6.386566c0.062316895 0.096343994 0.12490845 0.19010925 0.18772888 0.28125l0.12760925 0.17906189" fill-rule="evenodd"/>
    <path fill="#000000" stroke="#000000" stroke-width="1.0" stroke-linecap="butt" d="m196.68582 102.4516l-1.5658875 0.27812958l3.1770935 0.84703827l-1.889328 -2.691063z" fill-rule="evenodd"/>
    <path fill="#000000" fill-opacity="0.0" d="m203.82785 137.0162c3.0663147 0 6.124756 -14.244087 6.1326294 -28.488182c0.007873535 -14.244095 -3.0348206 -28.48819 -6.069641 -28.48819" fill-rule="evenodd"/>
    <path stroke="#000000" stroke-width="1.0" stroke-linejoin="round" stroke-linecap="butt" d="m203.82787 137.0162c3.0662994 0 6.1247253 -14.244087 6.132599 -28.488182c0.0039367676 -7.1220474 -0.75476074 -14.244095 -1.8937988 -19.585632c-0.56951904 -2.6707687 -1.2341156 -4.896408 -1.9460144 -6.4543533c-0.08898926 -0.19474792 -0.1787262 -0.37905884 -0.26908875 -0.55249786l-0.12738037 -0.23593903" fill-rule="evenodd"/>
    <path fill="#000000" stroke="#000000" stroke-width="1.0" stroke-linecap="butt" d="m205.72418 81.6996l0.81729126 -0.040611267l-1.5668793 -0.6380081l0.79019165 1.4959106z" fill-rule="evenodd"/>
  </g>
</svg>
