<?xml version="1.0"?>
<svg xmlns:xlink="http://www.w3.org/1999/xlink" xmlns="http://www.w3.org/2000/svg" version="1.1" viewBox="0.0 0.0 275 382" fill="none" stroke="none" stroke-linecap="square" stroke-miterlimit="10">
  <clipPath id="g12f501fe3c1_0_237.0">
    <path d="m0 0l960.0 0l0 540.0l-960.0 0l0 -540.0z" clip-rule="nonzero"/>
  </clipPath>
  <g clip-path="url(#g12f501fe3c1_0_237.0)">
    <path fill="#000000" fill-opacity="0.0" d="m25.614174 196.89394l0 0c0 -5.56633 4.5124054 -10.078735 10.078739 -10.078735l0 0c2.67305 0 5.236614 1.0618591 7.126747 2.9519806c1.8901291 1.8901367 2.951992 4.453705 2.951992 7.1267548l0 0c0 5.56633 -4.5124054 10.078735 -10.078739 10.078735l0 0c-5.566334 0 -10.078739 -4.5124054 -10.078739 -10.078735z" fill-rule="evenodd"/>
    <path fill="#000000" d="m31.144293 198.92331l1.6250019 -0.25q0.125 0.96875 0.75 1.5q0.625 0.515625 1.75 0.515625q1.125 0 1.671875 -0.453125q0.546875 -0.46875 0.546875 -1.09375q0 -0.546875 -0.484375 -0.875q-0.328125 -0.21875 -1.671875 -0.546875q-1.8125 -0.46875 -2.515625 -0.796875q-0.6875 -0.328125 -1.0468769 -0.90625q-0.359375 -0.59375 -0.359375 -1.3125q0 -0.640625 0.296875 -1.1875q0.2968769 -0.5625 0.8125019 -0.921875q0.375 -0.28125 1.03125 -0.46875q0.671875 -0.203125 1.421875 -0.203125q1.140625 0 2.0 0.328125q0.859375 0.328125 1.265625 0.890625q0.421875 0.5625 0.578125 1.5l-1.609375 0.21875q-0.109375 -0.75 -0.640625 -1.171875q-0.515625 -0.421875 -1.46875 -0.421875q-1.140625 0 -1.625 0.375q-0.46875 0.375 -0.46875 0.875q0 0.3125 0.1875 0.578125q0.203125 0.265625 0.640625 0.4375q0.234375 0.09375 1.4375 0.421875q1.75 0.453125 2.4375 0.75q0.6875 0.296875 1.078125 0.859375q0.390625 0.5625 0.390625 1.40625q0 0.828125 -0.484375 1.546875q-0.46875 0.71875 -1.375 1.125q-0.90625 0.390625 -2.046875 0.390625q-1.875 0 -2.875 -0.78125q-0.9843769 -0.78125 -1.2500019 -2.328125z" fill-rule="nonzero"/>
    <path fill="#000000" fill-opacity="0.0" d="m142.25137 101.342514l71.18111 -59.622047" fill-rule="evenodd"/>
    <path stroke="#595959" stroke-width="1.0" stroke-linejoin="round" stroke-linecap="butt" d="m142.25137 101.34251l68.55386 -57.421448" fill-rule="evenodd"/>
    <path fill="#595959" stroke="#595959" stroke-width="1.0" stroke-linecap="butt" d="m210.80525 43.92106l-0.13999939 1.5842285l1.6465149 -2.8461075l-3.090744 1.1218834z" fill-rule="evenodd"/>
    <path fill="#000000" fill-opacity="0.0" d="m146.0613 110.662964c42.283463 0 84.566925 36.314957 84.566925 72.62991" fill-rule="evenodd"/>
    <path stroke="#595959" stroke-width="1.0" stroke-linejoin="round" stroke-linecap="butt" d="m146.0613 110.662964c21.141724 0 42.283463 9.078743 58.139755 22.696854c7.9281464 6.8090515 14.534943 14.752945 19.159698 23.264267c2.312378 4.255661 4.129242 8.653168 5.3680115 13.121613c0.6194 2.2342224 1.0942535 4.4861755 1.4142609 6.7469788c0.08001709 0.56521606 0.15034485 1.1309662 0.21084595 1.6971436c0.030212402 0.2830963 0.057998657 0.5662842 0.08329773 0.84957886l0.0667572 0.8286438" fill-rule="evenodd"/>
    <path fill="#595959" stroke="#595959" stroke-width="1.0" stroke-linecap="butt" d="m230.5039 179.86804l-1.1646271 -1.0830536l1.2359161 3.0469513l1.0117645 -3.1285248z" fill-rule="evenodd"/>
    <path fill="#000000" fill-opacity="0.0" d="m230.62204 209.64798c0 42.110245 -41.496048 84.22049 -82.99211 84.22049" fill-rule="evenodd"/>
    <path stroke="#595959" stroke-width="1.0" stroke-linejoin="round" stroke-linecap="butt" stroke-dasharray="4.0,3.0" d="m230.62204 209.64798c0 21.05513 -10.374008 42.110245 -25.935028 57.90158c-7.7805176 7.8956604 -16.857773 14.475403 -26.58342 19.081207c-4.8628235 2.302887 -9.887726 4.112335 -14.993698 5.3460083c-2.5529785 0.6168518 -5.1262207 1.0897827 -7.7095947 1.4084778c-1.291687 0.1593628 -2.585907 0.28015137 -3.8813934 0.3611145l-0.4632721 0.025390625" fill-rule="evenodd"/>
    <path fill="#595959" stroke="#595959" stroke-width="1.0" stroke-linecap="butt" d="m151.05565 293.77176l1.092392 -1.1558838l-3.0567932 1.2113342l3.1202698 1.0369263z" fill-rule="evenodd"/>
    <path fill="#000000" fill-opacity="0.0" d="m121.614174 293.87866c-42.960632 0 -85.921265 -43.448837 -85.921265 -86.89766" fill-rule="evenodd"/>
    <path stroke="#595959" stroke-width="1.0" stroke-linejoin="round" stroke-linecap="butt" d="m121.614174 293.87866c-21.480316 0 -42.960632 -10.862213 -59.070866 -27.155518c-8.055119 -8.1466675 -14.767719 -17.651093 -19.466537 -27.834412c-2.3494072 -5.0916595 -4.1953735 -10.353027 -5.453987 -15.699265c-0.629303 -2.6731262 -1.1117706 -5.3674774 -1.4369125 -8.072403c-0.16257095 -1.3524933 -0.28581238 -2.7075958 -0.3684082 -4.0640564l-0.03448105 -0.6461029" fill-rule="evenodd"/>
    <path fill="#595959" stroke="#595959" stroke-width="1.0" stroke-linecap="butt" d="m35.78298 210.40692l1.1537514 1.094635l-1.2053986 -3.059143l-1.0429916 3.1182556z" fill-rule="evenodd"/>
    <path fill="#000000" fill-opacity="0.0" d="m35.692913 186.8152c0 -38.07875 42.17323 -76.157486 84.34645 -76.157486" fill-rule="evenodd"/>
    <path stroke="#595959" stroke-width="1.0" stroke-linejoin="round" stroke-linecap="butt" d="m35.692913 186.81519c0 -19.039368 10.543308 -38.078735 26.358269 -52.35826c7.907482 -7.139763 17.13287 -13.089561 27.017223 -17.254425c4.942177 -2.082428 10.049088 -3.718628 15.238373 -4.8342133c2.5946426 -0.55779266 5.2098694 -0.9854431 7.8354034 -1.2736359c1.312767 -0.14408875 2.6281052 -0.25332642 3.9447403 -0.32653046l0.52641296 -0.025665283" fill-rule="evenodd"/>
    <path fill="#595959" stroke="#595959" stroke-width="1.0" stroke-linecap="butt" d="m116.613335 110.742455l-1.0964355 1.1520538l3.0610123 -1.2006454l-3.1166306 -1.0478363z" fill-rule="evenodd"/>
    <path fill="#000000" fill-opacity="0.0" d="m120.04555 110.662964l0 0c0 -7.279724 5.823822 -13.181107 13.007874 -13.181107l0 0c3.4499054 0 6.758499 1.3887177 9.197952 3.8606567c2.4394531 2.471939 3.8099213 5.8246 3.8099213 9.32045l0 0c0 7.2797165 -5.823822 13.181099 -13.007874 13.181099l0 0c-7.1840515 0 -13.007874 -5.9013824 -13.007874 -13.181099z" fill-rule="evenodd"/>
    <path fill="#000000" d="m129.08984 115.58296l0 -9.671875l1.46875 0l0 1.375q1.0625 -1.59375 3.078125 -1.59375q0.875 0 1.609375 0.3125q0.734375 0.3125 1.09375 0.828125q0.375 0.5 0.515625 1.203125q0.09375 0.453125 0.09375 1.59375l0 5.953125l-1.640625 0l0 -5.890625q0 -1.0 -0.203125 -1.484375q-0.1875 -0.5 -0.671875 -0.796875q-0.484375 -0.296875 -1.140625 -0.296875q-1.046875 0 -1.8125 0.671875q-0.75 0.65625 -0.75 2.515625l0 5.28125l-1.640625 0z" fill-rule="nonzero"/>
    <path fill="#000000" fill-opacity="0.0" d="m217.61417 196.46689l0 0c0 -7.279724 5.8238373 -13.181107 13.007874 -13.181107l0 0c3.4499054 0 6.7585144 1.3887177 9.197968 3.8606567c2.4394379 2.471939 3.8099213 5.8246 3.8099213 9.32045l0 0c0 7.279724 -5.8238373 13.181091 -13.007889 13.181091l0 0c-7.1840363 0 -13.007874 -5.901367 -13.007874 -13.181091z" fill-rule="evenodd"/>
    <path fill="#000000" d="m226.65846 201.38689l0 -9.671875l1.46875 0l0 1.359375q0.453125 -0.71875 1.203125 -1.140625q0.765625 -0.4375 1.71875 -0.4375q1.078125 0 1.765625 0.453125q0.6875 0.4375 0.96875 1.234375q1.15625 -1.6875 2.984375 -1.6875q1.453125 0 2.21875 0.796875q0.78125 0.796875 0.78125 2.453125l0 6.640625l-1.640625 0l0 -6.09375q0 -0.984375 -0.15625 -1.40625q-0.15625 -0.4375 -0.578125 -0.703125q-0.421875 -0.265625 -0.984375 -0.265625q-1.015625 0 -1.6875 0.6875q-0.671875 0.671875 -0.671875 2.15625l0 5.625l-1.640625 0l0 -6.28125q0 -1.09375 -0.40625 -1.640625q-0.40625 -0.546875 -1.3125 -0.546875q-0.6875 0 -1.28125 0.359375q-0.59375 0.359375 -0.859375 1.0625q-0.25 0.703125 -0.25 2.03125l0 5.015625l-1.640625 0z" fill-rule="nonzero"/>
    <path fill="#000000" fill-opacity="0.0" d="m121.614174 293.87866l0 0c0 -7.279724 5.823822 -13.181122 13.007866 -13.181122l0 0c3.4499054 0 6.7585144 1.3887329 9.197968 3.8606567c2.4394379 2.4719543 3.8099213 5.8246155 3.8099213 9.320465l0 0c0 7.2796936 -5.8238373 13.181091 -13.007889 13.181091l0 0c-7.184044 0 -13.007866 -5.9013977 -13.007866 -13.181091z" fill-rule="evenodd"/>
    <path fill="#000000" d="m130.65846 298.79865l0 -13.359375l1.640625 0l0 7.625l3.890625 -3.9375l2.109375 0l-3.6875 3.59375l4.0625 6.078125l-2.015625 0l-3.203125 -4.953125l-1.15625 1.125l0 3.828125l-1.640625 0z" fill-rule="nonzero"/>
    <path fill="#000000" fill-opacity="0.0" d="m209.61417 32.38845l0 0c0 -7.2797203 5.8238373 -13.181101 13.007874 -13.181101l0 0c3.4499054 0 6.7585144 1.3887177 9.197968 3.8606548c2.4394379 2.4719353 3.8099213 5.8246 3.8099213 9.320446l0 0c0 7.279724 -5.8238373 13.181103 -13.007889 13.181103l0 0c-7.1840363 0 -13.007874 -5.9013786 -13.007874 -13.181103z" fill-rule="evenodd"/>
    <path fill="#000000" d="m218.04909 32.4647q0 -2.6875 1.484375 -3.96875q1.25 -1.078125 3.046875 -1.078125q2.0 0 3.265625 1.3125q1.265625 1.296875 1.265625 3.609375q0 1.859375 -0.5625 2.9375q-0.5625 1.0625 -1.640625 1.65625q-1.0625 0.59375 -2.328125 0.59375q-2.03125 0 -3.28125 -1.296875q-1.25 -1.3125 -1.25 -3.765625zm1.6875 0q0 1.859375 0.796875 2.796875q0.8125 0.921875 2.046875 0.921875q1.21875 0 2.03125 -0.921875q0.8125 -0.9375 0.8125 -2.84375q0 -1.796875 -0.8125 -2.71875q-0.8125 -0.921875 -2.03125 -0.921875q-1.234375 0 -2.046875 0.921875q-0.796875 0.90625 -0.796875 2.765625z" fill-rule="nonzero"/>
    <path fill="#000000" fill-opacity="0.0" d="m141.77544 99.69281c1.0179138 -2.0455399 5.001053 -8.182159 6.107483 -12.2732315c1.1064148 -4.0910797 1.5932465 -8.720802 0.53108215 -12.273239c-1.0621796 -3.5524368 -3.7116547 -7.258156 -6.9040985 -9.041389c-3.1924438 -1.7832336 -8.409378 -2.718567 -12.250565 -1.65802c-3.8411942 1.0605545 -8.899445 4.2281647 -10.796562 8.021324c-1.8971176 3.7931519 -1.7276459 10.092758 -0.58613586 14.737595c1.14151 4.644829 6.195984 10.942818 7.4351807 13.131386" fill-rule="evenodd"/>
    <path stroke="#595959" stroke-width="1.0" stroke-linejoin="round" stroke-linecap="butt" d="m141.77545 99.69281c1.0179138 -2.0455399 5.0010376 -8.182159 6.1074677 -12.2732315c1.1064148 -4.0910797 1.5932465 -8.720802 0.53108215 -12.273239c-1.0621796 -3.5524368 -3.7116547 -7.258156 -6.9040985 -9.041389c-3.1924438 -1.7832336 -8.409378 -2.7185707 -12.25058 -1.65802c-3.841179 1.0605469 -8.899437 4.2281723 -10.796547 8.021324c-1.8971176 3.7931442 -1.7276459 10.092758 -0.58613586 14.737587c0.570755 2.3224182 2.119751 5.0581207 3.6809616 7.486809c0.39029694 0.60715485 0.7813568 1.195137 1.158104 1.7526703c0.18836212 0.27877045 0.37314606 0.5499191 0.5524597 0.8120651l0.15219879 0.22200012" fill-rule="evenodd"/>
    <path fill="#595959" stroke="#595959" stroke-width="1.0" stroke-linecap="butt" d="m123.420364 97.47938l-1.558464 -0.31711578l2.6430817 1.9558868l-0.7674942 -3.197235z" fill-rule="evenodd"/>
    <path fill="#000000" fill-opacity="0.0" d="m126.85238 306.2966c-0.82501984 1.6806641 -4.0533676 6.7226562 -4.9501266 10.083984c-0.89676666 3.3613281 -1.6968536 6.8971863 -0.43045044 10.083984c1.2664108 3.186798 4.9798813 7.7397156 8.02887 9.036743c3.048996 1.2970276 7.478134 0.16317749 10.265091 -1.2546082c2.786972 -1.4177551 5.3805847 -4.3035583 6.4566956 -7.251953c1.0761261 -2.9483948 1.0043793 -6.9002686 0 -10.438324c-1.004364 -3.5380554 -5.021866 -8.991699 -6.026245 -10.790009" fill-rule="evenodd"/>
    <path stroke="#595959" stroke-width="1.0" stroke-linejoin="round" stroke-linecap="butt" stroke-dasharray="4.0,3.0" d="m126.85239 306.2966c-0.82501984 1.6806641 -4.0533676 6.7226562 -4.9501343 10.083984c-0.89676666 3.3613281 -1.6968536 6.8971863 -0.43045044 10.083984c1.2664108 3.1867676 4.9798813 7.7397156 8.02887 9.036743c3.048996 1.2970276 7.478134 0.16314697 10.265091 -1.2546082c2.786972 -1.4177246 5.3805847 -4.3035583 6.4566956 -7.251953c1.0761261 -2.9483948 1.0043793 -6.9002686 0 -10.438324c-0.50219727 -1.7690125 -1.7576599 -4.016968 -3.0131226 -6.047394c-0.31385803 -0.5076294 -0.6277313 -1.001648 -0.9298248 -1.4711914l-0.24568176 -0.37869263" fill-rule="evenodd"/>
    <path fill="#595959" stroke="#595959" stroke-width="1.0" stroke-linecap="butt" d="m142.03384 308.65918l1.5522461 0.34622192l-2.6060028 -2.0050354l0.7075043 3.2110596z" fill-rule="evenodd"/>
    <path fill="#000000" fill-opacity="0.0" d="m217.0 45.750656c-11.749786 9.874889 -58.7489 49.37445 -70.49869 59.249344" fill-rule="evenodd"/>
    <path stroke="#ff0000" stroke-width="1.0" stroke-linejoin="round" stroke-linecap="butt" d="m217.0 45.750656l-67.87511 57.044403" fill-rule="evenodd"/>
    <path fill="#ff0000" stroke="#ff0000" stroke-width="1.0" stroke-linecap="butt" d="m149.1249 102.79506l0.13737488 -1.5844574l-1.6418152 2.8488312l3.0888977 -1.1269989z" fill-rule="evenodd"/>
    <path fill="#000000" fill-opacity="0.0" d="m119.753746 115.50131c-2.7158356 0.40731812 -11.257866 1.2219543 -16.294983 2.4439087c-5.037117 1.221962 -9.722908 2.9866867 -13.9277115 4.887825c-4.204796 1.9011383 -7.621887 4.0741425 -11.301086 6.519005c-3.6791992 2.4448547 -7.3579407 5.1620636 -10.774109 8.150177c-3.4161758 2.9881134 -6.832344 6.2476044 -9.722912 9.778503c-2.8905716 3.5308838 -5.4744263 7.6948395 -7.62051 11.406815c-2.1460876 3.711975 -3.8980865 7.424423 -5.2560005 10.8650055c-1.3579178 3.4405823 -2.278061 6.518997 -2.891491 9.778503c-0.61343 3.259491 -0.6575737 8.148743 -0.7890892 9.778488" fill-rule="evenodd"/>
    <path stroke="#ff0000" stroke-width="1.0" stroke-linejoin="round" stroke-linecap="butt" d="m119.75374 115.50131c-2.715828 0.40731812 -11.257858 1.221962 -16.294975 2.4439087c-5.037117 1.221962 -9.722908 2.9866943 -13.9277115 4.887825c-4.204796 1.9011459 -7.621887 4.074135 -11.301094 6.519005c-3.6791992 2.44487 -7.357933 5.1620636 -10.774109 8.150177c-3.4161682 2.9881134 -6.8323364 6.2476044 -9.722904 9.778503c-2.8905716 3.5308838 -5.4744263 7.6948395 -7.620514 11.406815c-2.1460838 3.711975 -3.8980827 7.424423 -5.2559967 10.8650055c-1.357914 3.4405823 -2.278061 6.518997 -2.891491 9.778503c-0.3067131 1.6297455 -0.47110748 3.6669312 -0.57526016 5.5003967l-0.043880463 0.85520935" fill-rule="evenodd"/>
    <path fill="#ff0000" stroke="#ff0000" stroke-width="1.0" stroke-linecap="butt" d="m41.345802 185.68668l-1.0674324 -1.1789703l0.96997833 3.1417236l1.2764206 -3.0301971z" fill-rule="evenodd"/>
    <path fill="#000000" fill-opacity="0.0" d="m42.091843 208.86043c0.4506569 2.7158356 1.3519707 11.257874 2.7039375 16.294983c1.3519669 5.0371094 3.3044586 9.722916 5.4078712 13.927704c2.1034126 4.2048035 4.507614 7.6219025 7.2126007 11.301102c2.7049866 3.6791992 5.7112885 7.3579407 9.017326 10.774109c3.306038 3.4161682 6.9123383 6.8323364 10.818901 9.7229c3.9065628 2.890564 8.513557 5.4744263 12.620476 7.620514c4.1069107 2.1460876 8.214348 3.8980713 12.020996 5.256012c3.8066483 1.3579102 7.2126007 2.2780457 10.818901 2.8914795c3.6063004 0.61343384 9.015747 0.65756226 10.818901 0.789093" fill-rule="evenodd"/>
    <path stroke="#ff0000" stroke-width="1.0" stroke-linejoin="round" stroke-linecap="butt" d="m42.091843 208.86043c0.4506569 2.7158356 1.3519669 11.257874 2.7039337 16.294983c1.3519707 5.0371094 3.3044624 9.722916 5.407875 13.927719c2.1034164 4.204788 4.507614 7.621887 7.2126007 11.301071c2.7049904 3.6791992 5.7112923 7.357956 9.017326 10.774124c3.306038 3.4161682 6.9123383 6.8323364 10.818901 9.7229c3.9065628 2.890564 8.513557 5.4744263 12.620468 7.620514c4.1069183 2.1460876 8.214355 3.8981018 12.020996 5.2559814c3.806656 1.3579407 7.2126083 2.2780762 10.818909 2.89151c1.803154 0.30673218 4.0570908 0.47109985 6.0856323 0.57525635l1.3096008 0.06072998" fill-rule="evenodd"/>
    <path fill="#ff0000" stroke="#ff0000" stroke-width="1.0" stroke-linecap="butt" d="m120.108086 287.28522l-1.1736984 1.0732117l3.1369247 -0.9854126l-3.0364456 -1.2615051z" fill-rule="evenodd"/>
    <path fill="#000000" fill-opacity="0.0" d="m147.52286 288.3203c2.7158203 -0.45065308 11.257858 -1.3519592 16.294968 -2.703949c5.0371246 -1.3519592 9.722916 -3.3044434 13.927719 -5.4078674c4.2048035 -2.1033936 7.621887 -4.507599 11.301086 -7.2125854c3.6791992 -2.7049866 7.3579407 -5.7113037 10.774109 -9.017334c3.4161682 -3.3060303 6.8323364 -6.9123535 9.722916 -10.818909c2.890564 -3.9065552 5.4744263 -8.51355 7.620514 -12.620468c2.1460724 -4.106903 3.8980713 -8.21434 5.2559967 -12.020996c1.3579102 -3.806656 2.278061 -7.2126007 2.8914795 -10.818893c0.61343384 -3.606308 0.6575775 -9.015762 0.789093 -10.818909" fill-rule="evenodd"/>
    <path stroke="#ff0000" stroke-width="1.0" stroke-linejoin="round" stroke-linecap="butt" stroke-dasharray="4.0,3.0" d="m147.52286 288.3203c2.7158203 -0.45065308 11.257858 -1.3519592 16.294968 -2.703949c5.0371246 -1.3519592 9.722916 -3.3044434 13.927719 -5.4078674c4.204788 -2.1033936 7.621887 -4.507599 11.301086 -7.2125854c3.6791992 -2.705017 7.3579407 -5.7113037 10.774109 -9.017334c3.4161835 -3.3060303 6.8323517 -6.9123535 9.722916 -10.818909c2.890564 -3.9065552 5.4744263 -8.51355 7.620514 -12.620468c2.1460724 -4.106903 3.8980865 -8.214355 5.2559967 -12.020996c1.3579102 -3.806656 2.278061 -7.2126007 2.8914948 -10.818893c0.30670166 -1.8031464 0.47109985 -4.057083 0.57525635 -6.0856323l0.06072998 -1.3096008" fill-rule="evenodd"/>
    <path fill="#ff0000" stroke="#ff0000" stroke-width="1.0" stroke-linecap="butt" d="m225.94765 210.30408l1.0732117 1.173706l-0.98542786 -3.1369324l-1.2614899 3.0364532z" fill-rule="evenodd"/>
  </g>
</svg>
