<?xml version="1.0"?>
<svg xmlns:xlink="http://www.w3.org/1999/xlink" xmlns="http://www.w3.org/2000/svg" version="1.1" viewBox="0.0 0.0 364 360" fill="none" stroke="none" stroke-linecap="square" stroke-miterlimit="10">
  <clipPath id="g12ed5684d75_0_24.0">
    <path d="m0 0l960.0 0l0 540.0l-960.0 0l0 -540.0z" clip-rule="nonzero"/>
  </clipPath>
  <g clip-path="url(#g12ed5684d75_0_24.0)">
    <path fill="#000000" fill-opacity="0.0" d="m105.614174 196.89394l0 0c0 -5.56633 4.5124054 -10.078735 10.078743 -10.078735l0 0c2.6730423 0 5.2366104 1.0618591 7.1267395 2.9519806c1.8901367 1.8901367 2.9519958 4.453705 2.9519958 7.1267548l0 0c0 5.56633 -4.5124054 10.078735 -10.078735 10.078735l0 0c-5.5663376 0 -10.078743 -4.5124054 -10.078743 -10.078735z" fill-rule="evenodd"/>
    <path fill="#000000" d="m111.144295 198.92331l1.625 -0.25q0.125 0.96875 0.75 1.5q0.625 0.515625 1.75 0.515625q1.125 0 1.671875 -0.453125q0.546875 -0.46875 0.546875 -1.09375q0 -0.546875 -0.484375 -0.875q-0.328125 -0.21875 -1.671875 -0.546875q-1.8125 -0.46875 -2.515625 -0.796875q-0.6875 -0.328125 -1.046875 -0.90625q-0.359375 -0.59375 -0.359375 -1.3125q0 -0.640625 0.296875 -1.1875q0.296875 -0.5625 0.8125 -0.921875q0.375 -0.28125 1.03125 -0.46875q0.671875 -0.203125 1.421875 -0.203125q1.140625 0 2.0 0.328125q0.859375 0.328125 1.265625 0.890625q0.421875 0.5625 0.578125 1.5l-1.609375 0.21875q-0.109375 -0.75 -0.640625 -1.171875q-0.515625 -0.421875 -1.46875 -0.421875q-1.140625 0 -1.625 0.375q-0.46875 0.375 -0.46875 0.875q0 0.3125 0.1875 0.578125q0.203125 0.265625 0.640625 0.4375q0.234375 0.09375 1.4375 0.421875q1.75 0.453125 2.4375 0.75q0.6875 0.296875 1.078125 0.859375q0.390625 0.5625 0.390625 1.40625q0 0.828125 -0.484375 1.546875q-0.46875 0.71875 -1.375 1.125q-0.90625 0.390625 -2.046875 0.390625q-1.875 0 -2.875 -0.78125q-0.984375 -0.78125 -1.25 -2.328125z" fill-rule="nonzero"/>
    <path fill="#000000" fill-opacity="0.0" d="m222.25137 101.342514l71.18109 -59.622047" fill-rule="evenodd"/>
    <path stroke="#595959" stroke-width="1.0" stroke-linejoin="round" stroke-linecap="butt" d="m222.25137 101.34251l68.55386 -57.421448" fill-rule="evenodd"/>
    <path fill="#595959" stroke="#595959" stroke-width="1.0" stroke-linecap="butt" d="m290.80524 43.92106l-0.13998413 1.5842285l1.6465149 -2.8461075l-3.0907593 1.1218834z" fill-rule="evenodd"/>
    <path fill="#000000" fill-opacity="0.0" d="m226.0613 110.662964c42.283463 0 84.56694 36.314957 84.56694 72.62991" fill-rule="evenodd"/>
    <path stroke="#595959" stroke-width="1.0" stroke-linejoin="round" stroke-linecap="butt" d="m226.0613 110.662964c21.141724 0 42.283463 9.078743 58.139755 22.696854c7.9281616 6.8090515 14.534943 14.752945 19.159698 23.264267c2.312378 4.255661 4.129242 8.653168 5.3680115 13.121613c0.61938477 2.2342224 1.0942688 4.4861755 1.4142761 6.7469788c0.07998657 0.56521606 0.15032959 1.1309662 0.21081543 1.6971436c0.03024292 0.2830963 0.058013916 0.5662842 0.08331299 0.84957886l0.06674194 0.8286438" fill-rule="evenodd"/>
    <path fill="#595959" stroke="#595959" stroke-width="1.0" stroke-linecap="butt" d="m310.5039 179.86804l-1.1646423 -1.0830536l1.2359314 3.0469513l1.0117493 -3.1285248z" fill-rule="evenodd"/>
    <path fill="#000000" fill-opacity="0.0" d="m310.62204 209.64798c0 42.110245 -41.496063 84.22049 -82.99211 84.22049" fill-rule="evenodd"/>
    <path stroke="#595959" stroke-width="1.0" stroke-linejoin="round" stroke-linecap="butt" stroke-dasharray="4.0,3.0" d="m310.62204 209.64798c0 21.05513 -10.374023 42.110245 -25.935028 57.90158c-7.7805176 7.8956604 -16.857788 14.475403 -26.583405 19.081207c-4.8628387 2.302887 -9.887741 4.112335 -14.993698 5.3460083c-2.5529938 0.6168518 -5.126236 1.0897827 -7.70961 1.4084778c-1.291687 0.1593628 -2.585907 0.28015137 -3.8813934 0.3611145l-0.46325684 0.025390625" fill-rule="evenodd"/>
    <path fill="#595959" stroke="#595959" stroke-width="1.0" stroke-linecap="butt" d="m231.05565 293.77176l1.092392 -1.1558838l-3.0567932 1.2113342l3.1202698 1.0369263z" fill-rule="evenodd"/>
    <path fill="#000000" fill-opacity="0.0" d="m201.61417 293.87866c-42.960617 0 -85.92125 -43.448837 -85.92125 -86.89766" fill-rule="evenodd"/>
    <path stroke="#595959" stroke-width="1.0" stroke-linejoin="round" stroke-linecap="butt" d="m201.61417 293.87866c-21.4803 0 -42.960617 -10.862213 -59.07086 -27.155518c-8.055115 -8.1466675 -14.767715 -17.651093 -19.46653 -27.834412c-2.349411 -5.0916595 -4.1953735 -10.353027 -5.453987 -15.699265c-0.6293106 -2.6731262 -1.1117783 -5.3674774 -1.4369202 -8.072403c-0.16257477 -1.3524933 -0.28581238 -2.7075958 -0.3684082 -4.0640564l-0.034477234 -0.6461029" fill-rule="evenodd"/>
    <path fill="#595959" stroke="#595959" stroke-width="1.0" stroke-linecap="butt" d="m115.78298 210.40692l1.1537476 1.094635l-1.2053986 -3.059143l-1.0429916 3.1182556z" fill-rule="evenodd"/>
    <path fill="#000000" fill-opacity="0.0" d="m115.69292 186.8152c0 -38.07875 42.173218 -76.157486 84.34645 -76.157486" fill-rule="evenodd"/>
    <path stroke="#595959" stroke-width="1.0" stroke-linejoin="round" stroke-linecap="butt" d="m115.69292 186.81519c0 -19.039368 10.543304 -38.078735 26.358261 -52.35826c7.907486 -7.139763 17.132874 -13.089561 27.017227 -17.254425c4.942169 -2.082428 10.049088 -3.718628 15.238373 -4.8342133c2.594635 -0.55779266 5.2098694 -0.9854431 7.8354034 -1.2736359c1.3127747 -0.14408875 2.6281128 -0.25332642 3.944748 -0.32653046l0.5263977 -0.025665283" fill-rule="evenodd"/>
    <path fill="#595959" stroke="#595959" stroke-width="1.0" stroke-linecap="butt" d="m196.61333 110.742455l-1.0964203 1.1520538l3.0610046 -1.2006454l-3.116623 -1.0478363z" fill-rule="evenodd"/>
    <path fill="#000000" fill-opacity="0.0" d="m200.04555 110.662964l0 0c0 -7.279724 5.823822 -13.181107 13.007874 -13.181107l0 0c3.4499054 0 6.758499 1.3887177 9.197952 3.8606567c2.4394531 2.471939 3.8099213 5.8246 3.8099213 9.32045l0 0c0 7.2797165 -5.823822 13.181099 -13.007874 13.181099l0 0c-7.1840515 0 -13.007874 -5.9013824 -13.007874 -13.181099z" fill-rule="evenodd"/>
    <path fill="#000000" d="m209.08984 115.58296l0 -9.671875l1.46875 0l0 1.375q1.0625 -1.59375 3.078125 -1.59375q0.875 0 1.609375 0.3125q0.734375 0.3125 1.09375 0.828125q0.375 0.5 0.515625 1.203125q0.09375 0.453125 0.09375 1.59375l0 5.953125l-1.640625 0l0 -5.890625q0 -1.0 -0.203125 -1.484375q-0.1875 -0.5 -0.671875 -0.796875q-0.484375 -0.296875 -1.140625 -0.296875q-1.046875 0 -1.8125 0.671875q-0.75 0.65625 -0.75 2.515625l0 5.28125l-1.640625 0z" fill-rule="nonzero"/>
    <path fill="#000000" fill-opacity="0.0" d="m297.61417 196.46689l0 0c0 -7.279724 5.823822 -13.181107 13.007874 -13.181107l0 0c3.4499207 0 6.7585144 1.3887177 9.197968 3.8606567c2.4394531 2.471939 3.809906 5.8246 3.809906 9.32045l0 0c0 7.279724 -5.823822 13.181091 -13.007874 13.181091l0 0c-7.1840515 0 -13.007874 -5.901367 -13.007874 -13.181091z" fill-rule="evenodd"/>
    <path fill="#000000" d="m306.65848 201.38689l0 -9.671875l1.46875 0l0 1.359375q0.453125 -0.71875 1.203125 -1.140625q0.765625 -0.4375 1.71875 -0.4375q1.078125 0 1.765625 0.453125q0.6875 0.4375 0.96875 1.234375q1.15625 -1.6875 2.984375 -1.6875q1.453125 0 2.21875 0.796875q0.78125 0.796875 0.78125 2.453125l0 6.640625l-1.640625 0l0 -6.09375q0 -0.984375 -0.15625 -1.40625q-0.15625 -0.4375 -0.578125 -0.703125q-0.421875 -0.265625 -0.984375 -0.265625q-1.015625 0 -1.6875 0.6875q-0.671875 0.671875 -0.671875 2.15625l0 5.625l-1.640625 0l0 -6.28125q0 -1.09375 -0.40625 -1.640625q-0.40625 -0.546875 -1.3125 -0.546875q-0.6875 0 -1.28125 0.359375q-0.59375 0.359375 -0.859375 1.0625q-0.25 0.703125 -0.25 2.03125l0 5.015625l-1.640625 0z" fill-rule="nonzero"/>
    <path fill="#000000" fill-opacity="0.0" d="m201.61417 293.87866l0 0c0 -7.279724 5.8238373 -13.181122 13.007874 -13.181122l0 0c3.4499054 0 6.7585144 1.3887329 9.197968 3.8606567c2.4394379 2.4719543 3.8099213 5.8246155 3.8099213 9.320465l0 0c0 7.2796936 -5.8238373 13.181091 -13.007889 13.181091l0 0c-7.1840363 0 -13.007874 -5.9013977 -13.007874 -13.181091z" fill-rule="evenodd"/>
    <path fill="#000000" d="m210.65846 298.79865l0 -13.359375l1.640625 0l0 7.625l3.890625 -3.9375l2.109375 0l-3.6875 3.59375l4.0625 6.078125l-2.015625 0l-3.203125 -4.953125l-1.15625 1.125l0 3.828125l-1.640625 0z" fill-rule="nonzero"/>
    <path fill="#000000" fill-opacity="0.0" d="m289.61417 32.38845l0 0c0 -7.2797203 5.823822 -13.181101 13.007874 -13.181101l0 0c3.4499207 0 6.7585144 1.3887177 9.197968 3.8606548c2.4394531 2.4719353 3.809906 5.8246 3.809906 9.320446l0 0c0 7.279724 -5.823822 13.181103 -13.007874 13.181103l0 0c-7.1840515 0 -13.007874 -5.9013786 -13.007874 -13.181103z" fill-rule="evenodd"/>
    <path fill="#000000" d="m298.0491 32.4647q0 -2.6875 1.484375 -3.96875q1.25 -1.078125 3.046875 -1.078125q2.0 0 3.265625 1.3125q1.265625 1.296875 1.265625 3.609375q0 1.859375 -0.5625 2.9375q-0.5625 1.0625 -1.640625 1.65625q-1.0625 0.59375 -2.328125 0.59375q-2.03125 0 -3.28125 -1.296875q-1.25 -1.3125 -1.25 -3.765625zm1.6875 0q0 1.859375 0.796875 2.796875q0.8125 0.921875 2.046875 0.921875q1.21875 0 2.03125 -0.921875q0.8125 -0.9375 0.8125 -2.84375q0 -1.796875 -0.8125 -2.71875q-0.8125 -0.921875 -2.03125 -0.921875q-1.234375 0 -2.046875 0.921875q-0.796875 0.90625 -0.796875 2.765625z" fill-rule="nonzero"/>
    <path fill="#000000" fill-opacity="0.0" d="m221.77544 99.69281c1.0179138 -2.0455399 5.001053 -8.182159 6.107483 -12.2732315c1.1064148 -4.0910797 1.5932465 -8.720802 0.53108215 -12.273239c-1.0621796 -3.5524368 -3.7116547 -7.258156 -6.9040985 -9.041389c-3.1924438 -1.7832336 -8.409378 -2.718567 -12.250565 -1.65802c-3.8411865 1.0605545 -8.899445 4.2281647 -10.79657 8.021324c-1.89711 3.7931519 -1.7276306 10.092758 -0.58613586 14.737595c1.14151 4.644829 6.195999 10.942818 7.435196 13.131386" fill-rule="evenodd"/>
    <path stroke="#595959" stroke-width="1.0" stroke-linejoin="round" stroke-linecap="butt" d="m221.77545 99.69281c1.0178986 -2.0455399 5.0010376 -8.182159 6.1074677 -12.2732315c1.1064148 -4.0910797 1.5932465 -8.720802 0.53108215 -12.273239c-1.0621796 -3.5524368 -3.7116547 -7.258156 -6.9040985 -9.041389c-3.1924438 -1.7832336 -8.409393 -2.7185707 -12.25058 -1.65802c-3.8411865 1.0605469 -8.899429 4.2281723 -10.796539 8.021324c-1.8971252 3.7931442 -1.7276459 10.092758 -0.58613586 14.737587c0.57073975 2.3224182 2.1197357 5.0581207 3.680954 7.486809c0.3902893 0.60715485 0.7813721 1.195137 1.1580963 1.7526703c0.18838501 0.27877045 0.3731537 0.5499191 0.552475 0.8120651l0.15219116 0.22200012" fill-rule="evenodd"/>
    <path fill="#595959" stroke="#595959" stroke-width="1.0" stroke-linecap="butt" d="m203.42036 97.47938l-1.5584564 -0.31711578l2.6430664 1.9558868l-0.7674866 -3.197235z" fill-rule="evenodd"/>
    <path fill="#000000" fill-opacity="0.0" d="m206.85239 306.2966c-0.82502747 1.6806641 -4.0533752 6.7226562 -4.9501343 10.083984c-0.89675903 3.3613281 -1.6968536 6.8971863 -0.43045044 10.083984c1.2664032 3.186798 4.9798737 7.7397156 8.02887 9.036743c3.048996 1.2970276 7.478134 0.16317749 10.265091 -1.2546082c2.786972 -1.4177551 5.3805847 -4.3035583 6.4566956 -7.251953c1.0761261 -2.9483948 1.0043793 -6.9002686 0 -10.438324c-1.004364 -3.5380554 -5.021866 -8.991699 -6.026245 -10.790009" fill-rule="evenodd"/>
    <path stroke="#595959" stroke-width="1.0" stroke-linejoin="round" stroke-linecap="butt" stroke-dasharray="4.0,3.0" d="m206.85239 306.2966c-0.82502747 1.6806641 -4.0533752 6.7226562 -4.9501343 10.083984c-0.89675903 3.3613281 -1.6968536 6.8971863 -0.43045044 10.083984c1.2664032 3.1867676 4.979889 7.7397156 8.02887 9.036743c3.048996 1.2970276 7.478119 0.16314697 10.265091 -1.2546082c2.786972 -1.4177246 5.3805847 -4.3035583 6.4566956 -7.251953c1.0761261 -2.9483948 1.004364 -6.9002686 0 -10.438324c-0.50219727 -1.7690125 -1.7576447 -4.016968 -3.0131226 -6.047394c-0.3138733 -0.5076294 -0.6277313 -1.001648 -0.9298248 -1.4711914l-0.24568176 -0.37869263" fill-rule="evenodd"/>
    <path fill="#595959" stroke="#595959" stroke-width="1.0" stroke-linecap="butt" d="m222.03383 308.65918l1.5522614 0.34622192l-2.6060028 -2.0050354l0.7075043 3.2110596z" fill-rule="evenodd"/>
    <path fill="#000000" fill-opacity="0.0" d="m297.0 45.750656c-11.749786 9.874889 -58.7489 49.37445 -70.49869 59.249344" fill-rule="evenodd"/>
    <path stroke="#ff0000" stroke-width="1.0" stroke-linejoin="round" stroke-linecap="butt" d="m297.0 45.750656l-67.87511 57.044403" fill-rule="evenodd"/>
    <path fill="#ff0000" stroke="#ff0000" stroke-width="1.0" stroke-linecap="butt" d="m229.1249 102.79506l0.13737488 -1.5844574l-1.6418152 2.8488312l3.0888977 -1.1269989z" fill-rule="evenodd"/>
    <path fill="#000000" fill-opacity="0.0" d="m199.75374 115.50131c-2.7158203 0.40731812 -11.257858 1.2219543 -16.294968 2.4439087c-5.0371246 1.221962 -9.722916 2.9866867 -13.927719 4.887825c-4.2048035 1.9011383 -7.621887 4.0741425 -11.301086 6.519005c-3.6791992 2.4448547 -7.3579407 5.1620636 -10.774109 8.150177c-3.4161682 2.9881134 -6.8323364 6.2476044 -9.722916 9.778503c-2.890564 3.5308838 -5.4744263 7.6948395 -7.620514 11.406815c-2.14608 3.711975 -3.898079 7.424423 -5.2559967 10.8650055c-1.3579102 3.4405823 -2.278061 6.518997 -2.8914871 9.778503c-0.61343384 3.259491 -0.6575775 8.148743 -0.789093 9.778488" fill-rule="evenodd"/>
    <path stroke="#ff0000" stroke-width="1.0" stroke-linejoin="round" stroke-linecap="butt" d="m199.75375 115.50131c-2.7158356 0.40731812 -11.257874 1.221962 -16.294983 2.4439087c-5.0371246 1.221962 -9.722916 2.9866943 -13.927719 4.887825c-4.2048035 1.9011459 -7.621887 4.074135 -11.301086 6.519005c-3.6791992 2.44487 -7.3579407 5.1620636 -10.774109 8.150177c-3.4161682 2.9881134 -6.8323364 6.2476044 -9.722916 9.778503c-2.890564 3.5308838 -5.4744263 7.6948395 -7.620514 11.406815c-2.1460724 3.711975 -3.898079 7.424423 -5.2559967 10.8650055c-1.3579178 3.4405823 -2.278061 6.518997 -2.8914871 9.778503c-0.30671692 1.6297455 -0.4711151 3.6669312 -0.575264 5.5003967l-0.043876648 0.85520935" fill-rule="evenodd"/>
    <path fill="#ff0000" stroke="#ff0000" stroke-width="1.0" stroke-linecap="butt" d="m121.3458 185.68668l-1.0674362 -1.1789703l0.96997833 3.1417236l1.2764206 -3.0301971z" fill-rule="evenodd"/>
    <path fill="#000000" fill-opacity="0.0" d="m213.05342 123.84406c0 36.803154 -29.669296 73.6063 -59.338577 73.6063" fill-rule="evenodd"/>
    <path stroke="#000000" stroke-width="1.0" stroke-linejoin="round" stroke-linecap="butt" d="m213.05342 123.84407c0 18.401566 -7.417328 36.803146 -18.543304 50.604324c-5.5630035 6.900589 -12.053162 12.651077 -19.006897 16.676422c-3.4768677 2.0126648 -7.069641 3.5940552 -10.720352 4.672287c-1.8253479 0.539093 -3.6651917 0.95240784 -5.5122833 1.2309418c-0.46177673 0.06964111 -0.923996 0.13084412 -1.3865662 0.1835022c-0.23127747 0.02633667 -0.46264648 0.05050659 -0.69407654 0.072525024l-0.051849365 0.0044555664" fill-rule="evenodd"/>
    <path fill="#000000" stroke="#000000" stroke-width="1.0" stroke-linecap="butt" d="m157.13809 197.28853l1.0702362 -1.1764374l-3.0332184 1.2692261l3.1394196 0.97743225z" fill-rule="evenodd"/>
    <path fill="#000000" fill-opacity="0.0" d="m153.71391 192.49596c2.230301 -0.5171509 9.445953 -1.6378784 13.381805 -3.1029053c3.9358673 -1.4650269 6.866287 -3.2739258 10.233322 -5.6873016c3.367035 -2.4133606 7.126587 -5.7759705 9.968872 -8.792908c2.8422852 -3.016922 5.029419 -6.1198273 7.0848083 -9.308701c2.0553894 -3.188858 3.7168732 -6.5491943 5.2474976 -9.824478c1.5306396 -3.2752838 2.7991333 -6.422531 3.936325 -9.827209c1.1371765 -3.4046936 2.2307587 -7.067276 2.8868103 -10.600906c0.65605164 -3.5336304 0.874588 -8.834076 1.0494995 -10.600891" fill-rule="evenodd"/>
    <path stroke="#0cb135" stroke-width="1.0" stroke-linejoin="round" stroke-linecap="butt" d="m153.71391 192.49594c2.230301 -0.5171509 9.445953 -1.6378632 13.381821 -3.10289c3.935852 -1.4650269 6.866272 -3.273941 10.233307 -5.6873016c3.367035 -2.4133606 7.126587 -5.775955 9.968887 -8.792892c2.84227 -3.0169373 5.029419 -6.1198425 7.0848083 -9.308716c2.0553741 -3.188858 3.716858 -6.5491943 5.2474976 -9.824478c1.5306244 -3.2752838 2.799118 -6.422531 3.9363098 -9.827209c1.1371765 -3.4046936 2.2307587 -7.067276 2.8868103 -10.600906c0.3280182 -1.7668152 0.5466614 -3.9753265 0.7051697 -5.9629974l0.09188843 -1.2201233" fill-rule="evenodd"/>
    <path fill="#0cb135" stroke="#0cb135" stroke-width="1.0" stroke-linecap="butt" d="m207.25041 128.16843l1.0386963 1.2043762l-0.89393616 -3.164215l-1.3491211 2.9985352z" fill-rule="evenodd"/>
    <path fill="#000000" fill-opacity="0.0" d="m41.614174 109.28609l0 0c0 -5.56633 4.5124054 -10.078735 10.078739 -10.078735l0 0c2.67305 0 5.236614 1.0618591 7.126747 2.9519958c1.8901291 1.8901291 2.951992 4.453697 2.951992 7.1267395l0 0c0 5.5663376 -4.5124054 10.078743 -10.078739 10.078743l0 0c-5.566334 0 -10.078739 -4.5124054 -10.078739 -10.078743z" fill-rule="evenodd"/>
    <path fill="#000000" d="m49.78492 114.206085l0 -9.671875l1.46875 0l0 1.46875q0.5625 -1.03125 1.03125 -1.359375q0.484375 -0.328125 1.0625 -0.328125q0.828125 0 1.6875 0.53125l-0.5625 1.515625q-0.609375 -0.359375 -1.203125 -0.359375q-0.546875 0 -0.96875 0.328125q-0.421875 0.328125 -0.609375 0.890625q-0.28125 0.875 -0.28125 1.921875l0 5.0625l-1.625 0z" fill-rule="nonzero"/>
    <path fill="#000000" fill-opacity="0.0" d="m136.28934 190.31651l-77.480316 -73.88976" fill-rule="evenodd"/>
    <path stroke="#000000" stroke-width="1.0" stroke-linejoin="round" stroke-linecap="butt" d="m136.28934 190.31651l-73.13826 -69.748924" fill-rule="evenodd"/>
    <path fill="#000000" stroke="#000000" stroke-width="1.0" stroke-linecap="butt" d="m64.29101 119.37227l-4.4240417 -1.9366074l2.144188 4.32724z" fill-rule="evenodd"/>
    <path fill="#000000" fill-opacity="0.0" d="m108.56617 189.76718l-56.881893 -70.39369" fill-rule="evenodd"/>
    <path stroke="#000000" stroke-width="1.0" stroke-linejoin="round" stroke-linecap="butt" d="m108.56617 189.76718l-53.110844 -65.726875" fill-rule="evenodd"/>
    <path fill="#000000" stroke="#000000" stroke-width="1.0" stroke-linecap="butt" d="m56.740047 123.00218l-4.1369514 -2.491623l1.5675049 4.567871z" fill-rule="evenodd"/>
    <path fill="#000000" fill-opacity="0.0" d="m133.30045 197.44325l0 0c0 -5.56633 4.568817 -10.078735 10.204727 -10.078735l0 0c2.7064667 0 5.3020782 1.0618591 7.2158356 2.9519958c1.9137573 1.8901367 2.9888916 4.4536896 2.9888916 7.1267395l0 0c0 5.566345 -4.568817 10.078751 -10.204727 10.078751l0 0c-5.63591 0 -10.204727 -4.5124054 -10.204727 -10.078751z" fill-rule="evenodd"/>
    <path fill="#000000" d="m138.86746 199.47263l1.625 -0.25q0.125 0.96875 0.75 1.5q0.625 0.515625 1.75 0.515625q1.125 0 1.671875 -0.453125q0.546875 -0.46875 0.546875 -1.09375q0 -0.546875 -0.484375 -0.875q-0.328125 -0.21875 -1.671875 -0.546875q-1.8125 -0.46875 -2.515625 -0.796875q-0.6875 -0.328125 -1.046875 -0.90625q-0.359375 -0.59375 -0.359375 -1.3125q0 -0.640625 0.296875 -1.1875q0.296875 -0.5625 0.8125 -0.921875q0.375 -0.28125 1.03125 -0.46875q0.671875 -0.203125 1.421875 -0.203125q1.140625 0 2.0 0.328125q0.859375 0.328125 1.265625 0.890625q0.421875 0.5625 0.578125 1.5l-1.609375 0.21875q-0.109375 -0.75 -0.640625 -1.171875q-0.515625 -0.421875 -1.46875 -0.421875q-1.140625 0 -1.625 0.375q-0.46875 0.375 -0.46875 0.875q0 0.3125 0.1875 0.578125q0.203125 0.265625 0.640625 0.4375q0.234375 0.09375 1.4375 0.421875q1.75 0.453125 2.4375 0.75q0.6875 0.296875 1.078125 0.859375q0.390625 0.5625 0.390625 1.40625q0 0.828125 -0.484375 1.546875q-0.46875 0.71875 -1.375 1.125q-0.90625 0.390625 -2.046875 0.390625q-1.875 0 -2.875 -0.78125q-0.984375 -0.78125 -1.25 -2.328125z" fill-rule="nonzero"/>
    <path fill="#000000" d="m150.47684 191.48825l-1.859375 0l-1.0 -1.546875l-1.03125 1.546875l-1.875 0l1.96875 -2.546875l1.75 0l2.046875 2.546875z" fill-rule="nonzero"/>
    <path fill="#000000" fill-opacity="0.0" d="m63.671772 113.13263l77.480316 73.88977" fill-rule="evenodd"/>
    <path stroke="#0cb135" stroke-width="1.0" stroke-linejoin="round" stroke-linecap="butt" d="m63.671772 113.13263l73.13826 69.74893" fill-rule="evenodd"/>
    <path fill="#0cb135" stroke="#0cb135" stroke-width="1.0" stroke-linecap="butt" d="m135.6701 184.07687l4.4240417 1.9365997l-2.1441956 -4.32724z" fill-rule="evenodd"/>
    <path fill="#000000" fill-opacity="0.0" d="m122.09184 208.86043c0.45065308 2.7158356 1.3519669 11.257874 2.7039337 16.294983c1.3519745 5.0371094 3.3044586 9.722916 5.4078827 13.927704c2.1034088 4.2048035 4.507599 7.6219025 7.2125854 11.301102c2.7050018 3.6791992 5.7113037 7.3579407 9.017334 10.774109c3.3060455 3.4161682 6.9123383 6.8323364 10.818893 9.7229c3.9065704 2.890564 8.513565 5.4744263 12.620483 7.620514c4.106903 2.1460876 8.21434 3.8980713 12.020996 5.256012c3.806656 1.3579102 7.2126007 2.2780457 10.818893 2.8914795c3.606308 0.61343384 9.015762 0.65756226 10.818909 0.789093" fill-rule="evenodd"/>
    <path stroke="#ff0000" stroke-width="1.0" stroke-linejoin="round" stroke-linecap="butt" d="m122.09184 208.86043c0.45065308 2.7158356 1.3519745 11.257874 2.7039337 16.294983c1.3519745 5.0371094 3.3044586 9.722916 5.4078674 13.927719c2.103424 4.204788 4.5076294 7.621887 7.212616 11.301071c2.7049713 3.6791992 5.7112885 7.357956 9.017319 10.774124c3.3060303 3.4161682 6.9123383 6.8323364 10.818909 9.7229c3.9065552 2.890564 8.51355 5.4744263 12.620468 7.620514c4.106903 2.1460876 8.214355 3.8981018 12.020996 5.2559814c3.806656 1.3579407 7.2126007 2.2780762 10.818893 2.89151c1.8031464 0.30673218 4.057083 0.47109985 6.0856323 0.57525635l1.3096008 0.06072998" fill-rule="evenodd"/>
    <path fill="#ff0000" stroke="#ff0000" stroke-width="1.0" stroke-linecap="butt" d="m200.10808 287.28522l-1.173706 1.0732117l3.1369324 -0.9854126l-3.0364532 -1.2615051z" fill-rule="evenodd"/>
    <path fill="#000000" fill-opacity="0.0" d="m305.80054 182.74858c-0.4437256 -2.3435364 -1.3311768 -9.71463 -2.662323 -14.061249c-1.3311768 -4.3466187 -3.2536316 -8.390076 -5.324646 -12.018478c-2.071045 -3.6284027 -4.438263 -6.577072 -7.1016235 -9.751923c-2.6633606 -3.1748505 -5.6233826 -6.349304 -8.87854 -9.29718c-3.2551575 -2.947876 -6.805969 -5.895752 -10.652405 -8.390076c-3.8464355 -2.4943237 -8.382538 -4.723984 -12.426239 -6.5758743c-4.0437164 -1.8518982 -8.087936 -3.3637314 -11.835999 -4.5354996c-3.7480774 -1.1717758 -7.1016083 -1.9657822 -10.652405 -2.4951248c-3.5507965 -0.52934265 -8.876999 -0.5674362 -10.652405 -0.68091583" fill-rule="evenodd"/>
    <path stroke="#0cb135" stroke-width="1.0" stroke-linejoin="round" stroke-linecap="butt" d="m305.26004 179.36438l-0.14587402 -0.9486542c-0.097076416 -0.6227417 -0.20108032 -1.2768402 -0.31201172 -1.9466095c-0.4437256 -2.6790466 -0.99838257 -5.6084747 -1.6639404 -7.781784c-1.3311768 -4.3466187 -3.2536316 -8.390076 -5.3246765 -12.018478c-2.0710144 -3.6284027 -4.4382324 -6.577057 -7.1015625 -9.751923c-2.663391 -3.1748505 -5.623413 -6.349289 -8.878571 -9.297165c-3.2551575 -2.947876 -6.805969 -5.895767 -10.652405 -8.390091c-3.8464355 -2.4943237 -8.382538 -4.723984 -12.426239 -6.5758743c-4.0437164 -1.8519058 -8.087936 -3.3637314 -11.835999 -4.535507c-3.7480774 -1.1717606 -7.1016083 -1.9657745 -10.652405 -2.4951172c-3.5508118 -0.529335 -8.876999 -0.5674362 -10.652405 -0.68091583" fill-rule="evenodd"/>
    <path fill="#0cb135" stroke="#0cb135" stroke-width="1.0" stroke-linecap="butt" d="m305.26004 179.3644l-1.2878723 -0.93315125l1.5978088 2.8737335l0.62319946 -3.2284546z" fill-rule="evenodd"/>
    <path fill="#000000" fill-opacity="0.0" d="m227.52286 288.3203c2.7158203 -0.45065308 11.257858 -1.3519592 16.294968 -2.703949c5.0371246 -1.3519592 9.722916 -3.3044434 13.927719 -5.4078674c4.2048035 -2.1033936 7.621887 -4.507599 11.301086 -7.2125854c3.6791992 -2.7049866 7.3579407 -5.7113037 10.774109 -9.017334c3.4161682 -3.3060303 6.8323364 -6.9123535 9.7229 -10.818909c2.8905945 -3.9065552 5.4744263 -8.51355 7.620514 -12.620468c2.1460876 -4.106903 3.8981018 -8.21434 5.256012 -12.020996c1.3579102 -3.806656 2.2780457 -7.2126007 2.8914795 -10.818893c0.61343384 -3.606308 0.6575928 -9.015762 0.789093 -10.818909" fill-rule="evenodd"/>
    <path stroke="#ff0000" stroke-width="1.0" stroke-linejoin="round" stroke-linecap="butt" stroke-dasharray="4.0,3.0" d="m227.52284 288.3203c2.7158356 -0.45065308 11.257874 -1.3519592 16.294983 -2.703949c5.0371246 -1.3519592 9.722916 -3.3044434 13.927719 -5.4078674c4.2048035 -2.1033936 7.621887 -4.507599 11.301086 -7.2125854c3.6791992 -2.705017 7.3579407 -5.7113037 10.774109 -9.017334c3.4161682 -3.3060303 6.832367 -6.9123535 9.722931 -10.818909c2.8905334 -3.9065552 5.4744263 -8.51355 7.6204834 -12.620468c2.1460876 -4.106903 3.8981018 -8.214355 5.256012 -12.020996c1.3579102 -3.806656 2.2780457 -7.2126007 2.8914795 -10.818893c0.30670166 -1.8031464 0.47113037 -4.057083 0.57525635 -6.0856323l0.060760498 -1.3096008" fill-rule="evenodd"/>
    <path fill="#ff0000" stroke="#ff0000" stroke-width="1.0" stroke-linecap="butt" d="m305.94763 210.30408l1.0732422 1.173706l-0.9854431 -3.1369324l-1.2614746 3.0364532z" fill-rule="evenodd"/>
  </g>
</svg>
